<?xml version="1.0" encoding="utf-8" standalone="no"?>
<!DOCTYPE svg PUBLIC "-//W3C//DTD SVG 1.1//EN"
  "http://www.w3.org/Graphics/SVG/1.1/DTD/svg11.dtd">
<svg xmlns:xlink="http://www.w3.org/1999/xlink" width="527.76pt" height="300.417264pt" viewBox="0 0 527.76 300.417264" xmlns="http://www.w3.org/2000/svg" version="1.1">
 <metadata>
  <rdf:RDF xmlns:dc="http://purl.org/dc/elements/1.1/" xmlns:cc="http://creativecommons.org/ns#" xmlns:rdf="http://www.w3.org/1999/02/22-rdf-syntax-ns#">
   <cc:Work>
    <dc:type rdf:resource="http://purl.org/dc/dcmitype/StillImage"/>
    <dc:date>2026-08-23T17:24:20.135007</dc:date>
    <dc:format>image/svg+xml</dc:format>
    <dc:creator>
     <cc:Agent>
      <dc:title>Matplotlib v3.11.1, https://matplotlib.org/</dc:title>
     </cc:Agent>
    </dc:creator>
   </cc:Work>
  </rdf:RDF>
 </metadata>
 <defs>
  <style type="text/css">*{stroke-linejoin: round; stroke-linecap: butt}</style>
 </defs>
 <g id="figure_1">
  <g id="patch_1">
   <path d="M 0 300.417264 
L 527.76 300.417264 
L 527.76 0 
L 0 0 
z
" style="fill: #ffffff"/>
  </g>
  <g id="axes_1">
   <g id="patch_2">
    <path d="M 420.73772 147.015703 
Q 399.004923 158.316757 377.272127 169.617812 
" style="fill: none; stroke: #000000; stroke-width: 0.9; stroke-linecap: round"/>
   </g>
   <g id="text_1">
    <!-- 1 -->
    <g transform="translate(424.513138 146.278914) scale(0.13 -0.13)">
     <defs>
      <path id="DejaVuSans-14" d="M 794 531 
L 1825 531 
L 1825 4091 
L 703 3866 
L 703 4441 
L 1819 4666 
L 2450 4666 
L 2450 531 
L 3481 531 
L 3481 0 
L 794 0 
L 794 531 
z
" transform="scale(0.015625)"/>
     </defs>
     <use xlink:href="#DejaVuSans-14"/>
    </g>
   </g>
   <g id="patch_3">
    <path d="M 337.238494 92.702259 
Q 323.529261 76.57375 309.820027 60.44524 
" style="fill: none; stroke: #000000; stroke-width: 0.9; stroke-linecap: round"/>
   </g>
   <g id="text_2">
    <!-- 2 -->
    <g transform="translate(340.532739 104.820236) scale(0.13 -0.13)">
     <defs>
      <path id="DejaVuSans-15" d="M 1228 531 
L 3431 531 
L 3431 0 
L 469 0 
L 469 531 
Q 828 903 1448 1529 
Q 2069 2156 2228 2338 
Q 2531 2678 2651 2914 
Q 2772 3150 2772 3378 
Q 2772 3750 2511 3984 
Q 2250 4219 1831 4219 
Q 1534 4219 1204 4116 
Q 875 4013 500 3803 
L 500 4441 
Q 881 4594 1212 4672 
Q 1544 4750 1819 4750 
Q 2544 4750 2975 4387 
Q 3406 4025 3406 3419 
Q 3406 3131 3298 2873 
Q 3191 2616 2906 2266 
Q 2828 2175 2409 1742 
Q 1991 1309 1228 531 
z
" transform="scale(0.015625)"/>
     </defs>
     <use xlink:href="#DejaVuSans-15"/>
    </g>
   </g>
   <g id="patch_4">
    <path d="M 378.312489 131.557618 
Q 361.796716 142.292871 345.280942 153.028124 
" style="fill: none; stroke: #000000; stroke-width: 0.9; stroke-linecap: round"/>
   </g>
   <g id="text_3">
    <!-- 5 -->
    <g transform="translate(381.991417 129.855112) scale(0.13 -0.13)">
     <defs>
      <path id="DejaVuSans-18" d="M 691 4666 
L 3169 4666 
L 3169 4134 
L 1269 4134 
L 1269 2991 
Q 1406 3038 1543 3061 
Q 1681 3084 1819 3084 
Q 2600 3084 3056 2656 
Q 3513 2228 3513 1497 
Q 3513 744 3044 326 
Q 2575 -91 1722 -91 
Q 1428 -91 1123 -41 
Q 819 9 494 109 
L 494 744 
Q 775 591 1075 516 
Q 1375 441 1709 441 
Q 2250 441 2565 725 
Q 2881 1009 2881 1497 
Q 2881 1984 2565 2268 
Q 2250 2553 1709 2553 
Q 1456 2553 1204 2497 
Q 953 2441 691 2322 
L 691 4666 
z
" transform="scale(0.015625)"/>
     </defs>
     <use xlink:href="#DejaVuSans-18"/>
    </g>
   </g>
   <g id="patch_5">
    <path d="M 138.439346 184.832807 
Q 169.620286 177.903709 200.801226 170.974611 
" style="fill: none; stroke: #000000; stroke-width: 0.9; stroke-linecap: round"/>
   </g>
   <g id="text_4">
    <!-- 13 -->
    <g transform="translate(117.941772 190.926721) scale(0.13 -0.13)">
     <defs>
      <path id="DejaVuSans-16" d="M 2597 2516 
Q 3050 2419 3304 2112 
Q 3559 1806 3559 1356 
Q 3559 666 3084 287 
Q 2609 -91 1734 -91 
Q 1441 -91 1130 -33 
Q 819 25 488 141 
L 488 750 
Q 750 597 1062 519 
Q 1375 441 1716 441 
Q 2309 441 2620 675 
Q 2931 909 2931 1356 
Q 2931 1769 2642 2001 
Q 2353 2234 1838 2234 
L 1294 2234 
L 1294 2753 
L 1863 2753 
Q 2328 2753 2575 2939 
Q 2822 3125 2822 3475 
Q 2822 3834 2567 4026 
Q 2313 4219 1838 4219 
Q 1578 4219 1281 4162 
Q 984 4106 628 3988 
L 628 4550 
Q 988 4650 1302 4700 
Q 1616 4750 1894 4750 
Q 2613 4750 3031 4423 
Q 3450 4097 3450 3541 
Q 3450 3153 3228 2886 
Q 3006 2619 2597 2516 
z
" transform="scale(0.015625)"/>
     </defs>
     <use xlink:href="#DejaVuSans-14"/>
     <use xlink:href="#DejaVuSans-16" transform="translate(63.625 0)"/>
    </g>
   </g>
   <g id="patch_6">
    <path d="M 302.588642 194.896694 
Q 284.199239 199.911986 265.809836 204.927278 
" style="fill: none; stroke: #000000; stroke-width: 0.9; stroke-linecap: round"/>
   </g>
   <g id="text_5">
    <!-- 6 -->
    <g transform="translate(306.515362 196.074826) scale(0.13 -0.13)">
     <defs>
      <path id="DejaVuSans-19" d="M 2113 2584 
Q 1688 2584 1439 2293 
Q 1191 2003 1191 1497 
Q 1191 994 1439 701 
Q 1688 409 2113 409 
Q 2538 409 2786 701 
Q 3034 994 3034 1497 
Q 3034 2003 2786 2293 
Q 2538 2584 2113 2584 
z
M 3366 4563 
L 3366 3988 
Q 3128 4100 2886 4159 
Q 2644 4219 2406 4219 
Q 1781 4219 1451 3797 
Q 1122 3375 1075 2522 
Q 1259 2794 1537 2939 
Q 1816 3084 2150 3084 
Q 2853 3084 3261 2657 
Q 3669 2231 3669 1497 
Q 3669 778 3244 343 
Q 2819 -91 2113 -91 
Q 1303 -91 875 529 
Q 447 1150 447 2328 
Q 447 3434 972 4092 
Q 1497 4750 2381 4750 
Q 2619 4750 2861 4703 
Q 3103 4656 3366 4563 
z
" transform="scale(0.015625)"/>
     </defs>
     <use xlink:href="#DejaVuSans-19"/>
    </g>
   </g>
   <g id="text_6">
    <!-- Şekil 4 -->
    <g transform="translate(7.2 18.597656) scale(0.15 -0.15)">
     <defs>
      <path id="DejaVuSans-Bold-120" d="M 3834 4519 
L 3834 3531 
Q 3450 3703 3084 3790 
Q 2719 3878 2394 3878 
Q 1963 3878 1756 3759 
Q 1550 3641 1550 3391 
Q 1550 3203 1689 3098 
Q 1828 2994 2194 2919 
L 2706 2816 
Q 3484 2659 3812 2340 
Q 4141 2022 4141 1434 
Q 4141 663 3683 286 
Q 3225 -91 2284 -91 
Q 1841 -91 1394 -6 
Q 947 78 500 244 
L 500 1259 
Q 947 1022 1364 901 
Q 1781 781 2169 781 
Q 2563 781 2772 912 
Q 2981 1044 2981 1288 
Q 2981 1506 2839 1625 
Q 2697 1744 2272 1838 
L 1806 1941 
Q 1106 2091 782 2419 
Q 459 2747 459 3303 
Q 459 4000 909 4375 
Q 1359 4750 2203 4750 
Q 2588 4750 2994 4692 
Q 3400 4634 3834 4519 
z
M 2572 0 
Q 2754 -194 2839 -359 
Q 2925 -525 2925 -672 
Q 2925 -969 2733 -1111 
Q 2541 -1253 2144 -1253 
Q 1994 -1253 1834 -1233 
Q 1675 -1213 1513 -1172 
L 1510 -697 
Q 1666 -747 1795 -770 
Q 1925 -794 2029 -794 
Q 2210 -794 2311 -722 
Q 2413 -650 2413 -525 
Q 2413 -444 2346 -316 
Q 2279 -188 2138 0 
L 2572 0 
z
" transform="scale(0.015625)"/>
      <path id="DejaVuSans-Bold-48" d="M 4031 1759 
L 4031 1441 
L 1416 1441 
Q 1456 1047 1700 850 
Q 1944 653 2381 653 
Q 2734 653 3104 758 
Q 3475 863 3866 1075 
L 3866 213 
Q 3469 63 3072 -14 
Q 2675 -91 2278 -91 
Q 1328 -91 801 392 
Q 275 875 275 1747 
Q 275 2603 792 3093 
Q 1309 3584 2216 3584 
Q 3041 3584 3536 3087 
Q 4031 2591 4031 1759 
z
M 2881 2131 
Q 2881 2450 2695 2645 
Q 2509 2841 2209 2841 
Q 1884 2841 1681 2658 
Q 1478 2475 1428 2131 
L 2881 2131 
z
" transform="scale(0.015625)"/>
      <path id="DejaVuSans-Bold-4e" d="M 538 4863 
L 1656 4863 
L 1656 2216 
L 2944 3500 
L 4244 3500 
L 2534 1894 
L 4378 0 
L 3022 0 
L 1656 1459 
L 1656 0 
L 538 0 
L 538 4863 
z
" transform="scale(0.015625)"/>
      <path id="DejaVuSans-Bold-4c" d="M 538 3500 
L 1656 3500 
L 1656 0 
L 538 0 
L 538 3500 
z
M 538 4863 
L 1656 4863 
L 1656 3950 
L 538 3950 
L 538 4863 
z
" transform="scale(0.015625)"/>
      <path id="DejaVuSans-Bold-4f" d="M 538 4863 
L 1656 4863 
L 1656 0 
L 538 0 
L 538 4863 
z
" transform="scale(0.015625)"/>
      <path id="DejaVuSans-Bold-3" transform="scale(0.015625)"/>
      <path id="DejaVuSans-Bold-17" d="M 2356 3675 
L 1038 1722 
L 2356 1722 
L 2356 3675 
z
M 2156 4666 
L 3494 4666 
L 3494 1722 
L 4159 1722 
L 4159 850 
L 3494 850 
L 3494 0 
L 2356 0 
L 2356 850 
L 288 850 
L 288 1881 
L 2156 4666 
z
" transform="scale(0.015625)"/>
     </defs>
     <use xlink:href="#DejaVuSans-Bold-120"/>
     <use xlink:href="#DejaVuSans-Bold-48" transform="translate(72.015625 0)"/>
     <use xlink:href="#DejaVuSans-Bold-4e" transform="translate(139.84375 0)"/>
     <use xlink:href="#DejaVuSans-Bold-4c" transform="translate(206.34375 0)"/>
     <use xlink:href="#DejaVuSans-Bold-4f" transform="translate(240.625 0)"/>
     <use xlink:href="#DejaVuSans-Bold-3" transform="translate(274.90625 0)"/>
     <use xlink:href="#DejaVuSans-Bold-17" transform="translate(309.71875 0)"/>
    </g>
   </g>
   <g id="patch_7">
    <path d="M 263.877094 58.921562 
L 264.585686 59.629834 
L 265.294279 60.337468 
L 266.002871 61.044462 
L 266.711464 61.750819 
L 267.420056 62.456538 
L 268.128648 63.16162 
L 268.837241 63.866065 
L 269.545833 64.569875 
L 270.254426 65.273049 
L 270.963018 65.975589 
L 271.67161 66.677495 
L 272.380203 67.378767 
L 273.088795 68.079406 
L 273.797388 68.779412 
L 274.50598 69.478787 
L 275.214573 70.177531 
L 275.923165 70.875643 
L 276.631757 71.573126 
L 277.34035 72.269979 
L 278.048942 72.966203 
L 278.757535 73.661798 
L 279.466127 74.356766 
L 280.174719 75.051106 
L 280.883312 75.744819 
L 281.591904 76.437906 
L 282.300497 77.130367 
L 283.009089 77.822203 
L 283.717681 78.513415 
L 284.426274 79.204002 
L 285.134866 79.893966 
L 285.843459 80.583307 
L 286.552051 81.272025 
L 287.260644 81.960121 
L 287.969236 82.647597 
L 288.677828 83.334451 
L 289.386421 84.020685 
L 290.095013 84.7063 
L 290.803606 85.391295 
L 291.512198 86.075672 
L 292.22079 86.75943 
L 292.929383 87.442571 
L 293.637975 88.125095 
L 294.346568 88.807003 
L 295.05516 89.488294 
L 295.763752 90.16897 
L 296.472345 90.849032 
L 297.180937 91.528479 
L 297.88953 92.207312 
L 298.598122 92.885532 
L 299.306715 93.563139 
L 300.015307 94.240134 
L 300.723899 94.916517 
L 301.432492 95.592289 
L 302.141084 96.26745 
L 302.849677 96.942001 
L 303.558269 97.615943 
L 304.266861 98.289276 
L 304.975454 98.962 
L 305.684046 99.634116 
L 306.392639 100.305624 
L 307.101231 100.976526 
L 307.809823 101.646821 
L 308.518416 102.31651 
L 309.227008 102.985594 
L 309.935601 103.654073 
L 310.644193 104.321947 
L 311.352785 104.989218 
L 312.061378 105.655885 
L 312.76997 106.321949 
L 313.478563 106.987411 
L 314.187155 107.652272 
L 314.895748 108.31653 
L 315.60434 108.980188 
L 316.312932 109.643246 
L 317.021525 110.305704 
L 317.730117 110.967563 
L 318.43871 111.628822 
L 319.147302 112.289484 
L 319.855894 112.949548 
L 320.564487 113.609014 
L 321.273079 114.267884 
L 321.981672 114.926157 
L 322.690264 115.583835 
L 323.398856 116.240917 
L 324.107449 116.897405 
L 324.816041 117.553298 
L 325.524634 118.208598 
L 326.233226 118.863304 
L 326.941819 119.517417 
L 327.650411 120.170938 
L 328.359003 120.823868 
L 329.067596 121.476206 
L 329.776188 122.127953 
L 330.484781 122.77911 
L 331.193373 123.429677 
L 331.901965 124.079654 
L 332.610558 124.729043 
L 333.31915 125.377844 
L 334.027743 126.026056 
L 334.736335 126.673681 
L 335.444927 127.320719 
L 336.15352 127.967171 
L 336.862112 128.613037 
L 337.570705 129.258317 
L 338.279297 129.903012 
L 338.98789 130.547123 
L 339.696482 131.19065 
L 340.405074 131.833593 
L 341.113667 132.475953 
L 341.822259 133.117731 
L 342.530852 133.758926 
L 343.239444 134.39954 
L 343.948036 135.039572 
L 344.656629 135.679024 
L 345.365221 136.317896 
L 346.073814 136.956188 
L 346.782406 137.5939 
L 347.490998 138.231034 
L 348.199591 138.86759 
L 348.908183 139.503567 
L 349.616776 140.138967 
L 350.325368 140.77379 
L 351.033961 141.408037 
L 351.742553 142.041708 
L 352.451145 142.674803 
L 353.159738 143.307323 
L 353.86833 143.939269 
L 354.576923 144.57064 
L 355.285515 145.201438 
L 355.994107 145.831662 
L 356.7027 146.461314 
L 357.411292 147.090393 
L 358.119885 147.718901 
L 358.828477 148.346837 
L 359.537069 148.974202 
L 360.245662 149.600997 
L 360.954254 150.227221 
L 361.662847 150.852876 
L 362.371439 151.477962 
L 363.080032 152.10248 
L 363.788624 152.726429 
L 364.497216 153.34981 
L 365.205809 153.972624 
L 365.914401 154.594871 
L 366.622994 155.216552 
L 367.331586 155.837667 
L 368.040178 156.458216 
L 368.748771 157.078201 
L 369.457363 157.69762 
L 370.165956 158.316476 
L 370.874548 158.934767 
L 371.58314 159.552496 
L 372.291733 160.169661 
L 373.000325 160.786265 
L 373.708918 161.402306 
L 374.41751 162.017786 
L 375.126102 162.632704 
L 375.834695 163.247062 
L 376.543287 163.86086 
L 377.25188 164.474098 
L 377.960472 165.086777 
L 378.669065 165.698897 
L 379.377657 166.310458 
L 380.086249 166.921462 
L 380.794842 167.531907 
L 381.503434 168.141796 
L 382.212027 168.751128 
L 382.920619 169.359904 
L 383.629211 169.968123 
L 384.337804 170.575788 
L 385.046396 171.182897 
L 385.754989 171.789452 
L 386.463581 172.395453 
L 387.172173 173.0009 
L 387.880766 173.605794 
L 388.589358 174.210134 
L 389.297951 174.813923 
L 390.006543 175.417159 
L 390.715136 176.019844 
L 391.423728 176.621978 
L 392.13232 177.223561 
L 392.840913 177.824594 
L 393.549505 178.425076 
L 394.258098 179.02501 
L 394.96669 179.624394 
L 395.675282 180.22323 
L 396.383875 180.821517 
L 397.092467 181.419257 
L 397.80106 182.016449 
L 398.509652 182.613094 
L 399.218244 183.209193 
L 399.926837 183.804746 
L 400.635429 184.399753 
L 401.344022 184.994214 
L 402.052614 185.588131 
L 402.761207 186.181504 
L 403.469799 186.774332 
L 404.178391 187.366616 
L 404.886984 187.958358 
L 405.595576 188.549556 
L 406.304169 189.140212 
L 407.012761 189.730326 
L 407.721353 190.319899 
L 408.429946 190.90893 
L 409.138538 191.497421 
L 409.847131 192.085371 
L 410.555723 192.672781 
L 411.264315 193.259651 
L 411.972908 193.845983 
L 412.6815 194.431775 
L 413.390093 195.017029 
L 414.098685 195.601746 
L 414.807278 196.185924 
L 415.51587 196.769566 
L 416.224462 197.35267 
L 416.933055 197.935239 
L 417.641647 198.517271 
L 418.35024 199.098768 
L 419.058832 199.67973 
L 419.767424 200.260156 
L 420.476017 200.840049 
L 421.184609 201.419407 
L 421.893202 201.998232 
L 422.601794 202.576524 
L 423.310386 203.154283 
L 424.018979 203.731509 
L 424.727571 204.308203 
L 425.436164 204.884366 
L 426.144756 205.459998 
L 426.853349 206.035098 
L 427.561941 206.609668 
L 428.270533 207.183709 
L 428.979126 207.757219 
L 429.687718 208.3302 
L 430.396311 208.902652 
L 431.104903 209.474576 
L 431.813495 210.045971 
L 432.522088 210.616839 
L 433.23068 211.187179 
L 433.939273 211.756993 
L 434.647865 212.326279 
L 435.356457 212.89504 
L 436.06505 213.463275 
L 436.773642 214.030984 
L 437.482235 214.598168 
L 438.190827 215.164827 
L 438.899419 215.730962 
L 439.608012 216.296573 
L 440.316604 216.861661 
L 441.025197 217.426225 
L 441.733789 217.990267 
L 442.442382 218.553786 
L 443.150974 219.116782 
L 443.859566 219.679258 
L 444.568159 220.241212 
L 445.276751 220.802645 
L 445.985344 221.363557 
L 446.693936 221.923949 
L 447.402528 222.483822 
L 447.402528 247.61605 
L 446.693936 247.285628 
L 445.985344 246.955206 
L 445.276751 246.624784 
L 444.568159 246.294362 
L 443.859566 245.96394 
L 443.150974 245.633518 
L 442.442382 245.303096 
L 441.733789 244.972674 
L 441.025197 244.642252 
L 440.316604 244.31183 
L 439.608012 243.981408 
L 438.899419 243.650985 
L 438.190827 243.320563 
L 437.482235 242.990141 
L 436.773642 242.659719 
L 436.06505 242.329297 
L 435.356457 241.998875 
L 434.647865 241.668453 
L 433.939273 241.338031 
L 433.23068 241.007609 
L 432.522088 240.677187 
L 431.813495 240.346765 
L 431.104903 240.016343 
L 430.396311 239.685921 
L 429.687718 239.355499 
L 428.979126 239.025077 
L 428.270533 238.694654 
L 427.561941 238.364232 
L 426.853349 238.03381 
L 426.144756 237.703388 
L 425.436164 237.372966 
L 424.727571 237.042544 
L 424.018979 236.712122 
L 423.310386 236.3817 
L 422.601794 236.051278 
L 421.893202 235.720856 
L 421.184609 235.390434 
L 420.476017 235.060012 
L 419.767424 234.72959 
L 419.058832 234.399168 
L 418.35024 234.068746 
L 417.641647 233.738323 
L 416.933055 233.407901 
L 416.224462 233.077479 
L 415.51587 232.747057 
L 414.807278 232.416635 
L 414.098685 232.086213 
L 413.390093 231.755791 
L 412.6815 231.425369 
L 411.972908 231.094947 
L 411.264315 230.764525 
L 410.555723 230.434103 
L 409.847131 230.103681 
L 409.138538 229.773259 
L 408.429946 229.442837 
L 407.721353 229.112415 
L 407.012761 228.781992 
L 406.304169 228.45157 
L 405.595576 228.121148 
L 404.886984 227.790726 
L 404.178391 227.460304 
L 403.469799 227.129882 
L 402.761207 226.79946 
L 402.052614 226.469038 
L 401.344022 226.138616 
L 400.635429 225.808194 
L 399.926837 225.477772 
L 399.218244 225.14735 
L 398.509652 224.816928 
L 397.80106 224.486506 
L 397.092467 224.156084 
L 396.383875 223.825661 
L 395.675282 223.495239 
L 394.96669 223.164817 
L 394.258098 222.834395 
L 393.549505 222.503973 
L 392.840913 222.173551 
L 392.13232 221.843129 
L 391.423728 221.512707 
L 390.715136 221.182285 
L 390.006543 220.851863 
L 389.297951 220.521441 
L 388.589358 220.191019 
L 387.880766 219.860597 
L 387.172173 219.530175 
L 386.463581 219.199753 
L 385.754989 218.86933 
L 385.046396 218.538908 
L 384.337804 218.208486 
L 383.629211 217.878064 
L 382.920619 217.547642 
L 382.212027 217.21722 
L 381.503434 216.886798 
L 380.794842 216.556376 
L 380.086249 216.225954 
L 379.377657 215.895532 
L 378.669065 215.56511 
L 377.960472 215.234688 
L 377.25188 214.904266 
L 376.543287 214.573844 
L 375.834695 214.243422 
L 375.126102 213.913 
L 374.41751 213.582577 
L 373.708918 213.252155 
L 373.000325 212.921733 
L 372.291733 212.591311 
L 371.58314 212.260889 
L 370.874548 211.930467 
L 370.165956 211.600045 
L 369.457363 211.269623 
L 368.748771 210.939201 
L 368.040178 210.608779 
L 367.331586 210.278357 
L 366.622994 209.947935 
L 365.914401 209.617513 
L 365.205809 209.287091 
L 364.497216 208.956669 
L 363.788624 208.626246 
L 363.080032 208.295824 
L 362.371439 207.965402 
L 361.662847 207.63498 
L 360.954254 207.304558 
L 360.245662 206.974136 
L 359.537069 206.643714 
L 358.828477 206.313292 
L 358.119885 205.98287 
L 357.411292 205.652448 
L 356.7027 205.322026 
L 355.994107 204.991604 
L 355.285515 204.661182 
L 354.576923 204.33076 
L 353.86833 204.000338 
L 353.159738 203.669915 
L 352.451145 203.339493 
L 351.742553 203.009071 
L 351.033961 202.678649 
L 350.325368 202.348227 
L 349.616776 202.017805 
L 348.908183 201.687383 
L 348.199591 201.356961 
L 347.490998 201.026539 
L 346.782406 200.696117 
L 346.073814 200.365695 
L 345.365221 200.035273 
L 344.656629 199.704851 
L 343.948036 199.374429 
L 343.239444 199.044007 
L 342.530852 198.713584 
L 341.822259 198.383162 
L 341.113667 198.05274 
L 340.405074 197.722318 
L 339.696482 197.391896 
L 338.98789 197.061474 
L 338.279297 196.731052 
L 337.570705 196.40063 
L 336.862112 196.070208 
L 336.15352 195.739786 
L 335.444927 195.409364 
L 334.736335 195.078942 
L 334.027743 194.74852 
L 333.31915 194.418098 
L 332.610558 194.087676 
L 331.901965 193.757253 
L 331.193373 193.426831 
L 330.484781 193.096409 
L 329.776188 192.765987 
L 329.067596 192.435565 
L 328.359003 192.105143 
L 327.650411 191.774721 
L 326.941819 191.444299 
L 326.233226 191.113877 
L 325.524634 190.783455 
L 324.816041 190.453033 
L 324.107449 190.122611 
L 323.398856 189.792189 
L 322.690264 189.461767 
L 321.981672 189.131345 
L 321.273079 188.800922 
L 320.564487 188.4705 
L 319.855894 188.140078 
L 319.147302 187.809656 
L 318.43871 187.479234 
L 317.730117 187.148812 
L 317.021525 186.81839 
L 316.312932 186.487968 
L 315.60434 186.157546 
L 314.895748 185.827124 
L 314.187155 185.496702 
L 313.478563 185.16628 
L 312.76997 184.835858 
L 312.061378 184.505436 
L 311.352785 184.175014 
L 310.644193 183.844591 
L 309.935601 183.514169 
L 309.227008 183.183747 
L 308.518416 182.853325 
L 307.809823 182.522903 
L 307.101231 182.192481 
L 306.392639 181.862059 
L 305.684046 181.531637 
L 304.975454 181.201215 
L 304.266861 180.870793 
L 303.558269 180.540371 
L 302.849677 180.209949 
L 302.141084 179.879527 
L 301.432492 179.549105 
L 300.723899 179.218683 
L 300.015307 178.88826 
L 299.306715 178.557838 
L 298.598122 178.227416 
L 297.88953 177.896994 
L 297.180937 177.566572 
L 296.472345 177.23615 
L 295.763752 176.905728 
L 295.05516 176.575306 
L 294.346568 176.244884 
L 293.637975 175.914462 
L 292.929383 175.58404 
L 292.22079 175.253618 
L 291.512198 174.923196 
L 290.803606 174.592774 
L 290.095013 174.262352 
L 289.386421 173.931929 
L 288.677828 173.601507 
L 287.969236 173.271085 
L 287.260644 172.940663 
L 286.552051 172.610241 
L 285.843459 172.279819 
L 285.134866 171.949397 
L 284.426274 171.618975 
L 283.717681 171.288553 
L 283.009089 170.958131 
L 282.300497 170.627709 
L 281.591904 170.297287 
L 280.883312 169.966865 
L 280.174719 169.636443 
L 279.466127 169.306021 
L 278.757535 168.975599 
L 278.048942 168.645176 
L 277.34035 168.314754 
L 276.631757 167.984332 
L 275.923165 167.65391 
L 275.214573 167.323488 
L 274.50598 166.993066 
L 273.797388 166.662644 
L 273.088795 166.332222 
L 272.380203 166.0018 
L 271.67161 165.671378 
L 270.963018 165.340956 
L 270.254426 165.010534 
L 269.545833 164.680112 
L 268.837241 164.34969 
L 268.128648 164.019268 
L 267.420056 163.688845 
L 266.711464 163.358423 
L 266.002871 163.028001 
L 265.294279 162.697579 
L 264.585686 162.367157 
L 263.877094 162.036735 
L 263.877094 162.036735 
L 263.168502 162.367157 
L 262.459909 162.697579 
L 261.751317 163.028001 
L 261.042724 163.358423 
L 260.334132 163.688845 
L 259.625539 164.019268 
L 258.916947 164.34969 
L 258.208355 164.680112 
L 257.499762 165.010534 
L 256.79117 165.340956 
L 256.082577 165.671378 
L 255.373985 166.0018 
L 254.665393 166.332222 
L 253.9568 166.662644 
L 253.248208 166.993066 
L 252.539615 167.323488 
L 251.831023 167.65391 
L 251.122431 167.984332 
L 250.413838 168.314754 
L 249.705246 168.645176 
L 248.996653 168.975599 
L 248.288061 169.306021 
L 247.579468 169.636443 
L 246.870876 169.966865 
L 246.162284 170.297287 
L 245.453691 170.627709 
L 244.745099 170.958131 
L 244.036506 171.288553 
L 243.327914 171.618975 
L 242.619322 171.949397 
L 241.910729 172.279819 
L 241.202137 172.610241 
L 240.493544 172.940663 
L 239.784952 173.271085 
L 239.07636 173.601507 
L 238.367767 173.931929 
L 237.659175 174.262352 
L 236.950582 174.592774 
L 236.24199 174.923196 
L 235.533397 175.253618 
L 234.824805 175.58404 
L 234.116213 175.914462 
L 233.40762 176.244884 
L 232.699028 176.575306 
L 231.990435 176.905728 
L 231.281843 177.23615 
L 230.573251 177.566572 
L 229.864658 177.896994 
L 229.156066 178.227416 
L 228.447473 178.557838 
L 227.738881 178.88826 
L 227.030289 179.218683 
L 226.321696 179.549105 
L 225.613104 179.879527 
L 224.904511 180.209949 
L 224.195919 180.540371 
L 223.487327 180.870793 
L 222.778734 181.201215 
L 222.070142 181.531637 
L 221.361549 181.862059 
L 220.652957 182.192481 
L 219.944364 182.522903 
L 219.235772 182.853325 
L 218.52718 183.183747 
L 217.818587 183.514169 
L 217.109995 183.844591 
L 216.401402 184.175014 
L 215.69281 184.505436 
L 214.984218 184.835858 
L 214.275625 185.16628 
L 213.567033 185.496702 
L 212.85844 185.827124 
L 212.149848 186.157546 
L 211.441256 186.487968 
L 210.732663 186.81839 
L 210.024071 187.148812 
L 209.315478 187.479234 
L 208.606886 187.809656 
L 207.898293 188.140078 
L 207.189701 188.4705 
L 206.481109 188.800922 
L 205.772516 189.131345 
L 205.063924 189.461767 
L 204.355331 189.792189 
L 203.646739 190.122611 
L 202.938147 190.453033 
L 202.229554 190.783455 
L 201.520962 191.113877 
L 200.812369 191.444299 
L 200.103777 191.774721 
L 199.395185 192.105143 
L 198.686592 192.435565 
L 197.978 192.765987 
L 197.269407 193.096409 
L 196.560815 193.426831 
L 195.852222 193.757253 
L 195.14363 194.087676 
L 194.435038 194.418098 
L 193.726445 194.74852 
L 193.017853 195.078942 
L 192.30926 195.409364 
L 191.600668 195.739786 
L 190.892076 196.070208 
L 190.183483 196.40063 
L 189.474891 196.731052 
L 188.766298 197.061474 
L 188.057706 197.391896 
L 187.349114 197.722318 
L 186.640521 198.05274 
L 185.931929 198.383162 
L 185.223336 198.713584 
L 184.514744 199.044007 
L 183.806151 199.374429 
L 183.097559 199.704851 
L 182.388967 200.035273 
L 181.680374 200.365695 
L 180.971782 200.696117 
L 180.263189 201.026539 
L 179.554597 201.356961 
L 178.846005 201.687383 
L 178.137412 202.017805 
L 177.42882 202.348227 
L 176.720227 202.678649 
L 176.011635 203.009071 
L 175.303043 203.339493 
L 174.59445 203.669915 
L 173.885858 204.000338 
L 173.177265 204.33076 
L 172.468673 204.661182 
L 171.76008 204.991604 
L 171.051488 205.322026 
L 170.342896 205.652448 
L 169.634303 205.98287 
L 168.925711 206.313292 
L 168.217118 206.643714 
L 167.508526 206.974136 
L 166.799934 207.304558 
L 166.091341 207.63498 
L 165.382749 207.965402 
L 164.674156 208.295824 
L 163.965564 208.626246 
L 163.256972 208.956669 
L 162.548379 209.287091 
L 161.839787 209.617513 
L 161.131194 209.947935 
L 160.422602 210.278357 
L 159.71401 210.608779 
L 159.005417 210.939201 
L 158.296825 211.269623 
L 157.588232 211.600045 
L 156.87964 211.930467 
L 156.171047 212.260889 
L 155.462455 212.591311 
L 154.753863 212.921733 
L 154.04527 213.252155 
L 153.336678 213.582577 
L 152.628085 213.913 
L 151.919493 214.243422 
L 151.210901 214.573844 
L 150.502308 214.904266 
L 149.793716 215.234688 
L 149.085123 215.56511 
L 148.376531 215.895532 
L 147.667939 216.225954 
L 146.959346 216.556376 
L 146.250754 216.886798 
L 145.542161 217.21722 
L 144.833569 217.547642 
L 144.124976 217.878064 
L 143.416384 218.208486 
L 142.707792 218.538908 
L 141.999199 218.86933 
L 141.290607 219.199753 
L 140.582014 219.530175 
L 139.873422 219.860597 
L 139.16483 220.191019 
L 138.456237 220.521441 
L 137.747645 220.851863 
L 137.039052 221.182285 
L 136.33046 221.512707 
L 135.621868 221.843129 
L 134.913275 222.173551 
L 134.204683 222.503973 
L 133.49609 222.834395 
L 132.787498 223.164817 
L 132.078905 223.495239 
L 131.370313 223.825661 
L 130.661721 224.156084 
L 129.953128 224.486506 
L 129.244536 224.816928 
L 128.535943 225.14735 
L 127.827351 225.477772 
L 127.118759 225.808194 
L 126.410166 226.138616 
L 125.701574 226.469038 
L 124.992981 226.79946 
L 124.284389 227.129882 
L 123.575797 227.460304 
L 122.867204 227.790726 
L 122.158612 228.121148 
L 121.450019 228.45157 
L 120.741427 228.781992 
L 120.032834 229.112415 
L 119.324242 229.442837 
L 118.61565 229.773259 
L 117.907057 230.103681 
L 117.198465 230.434103 
L 116.489872 230.764525 
L 115.78128 231.094947 
L 115.072688 231.425369 
L 114.364095 231.755791 
L 113.655503 232.086213 
L 112.94691 232.416635 
L 112.238318 232.747057 
L 111.529726 233.077479 
L 110.821133 233.407901 
L 110.112541 233.738323 
L 109.403948 234.068746 
L 108.695356 234.399168 
L 107.986763 234.72959 
L 107.278171 235.060012 
L 106.569579 235.390434 
L 105.860986 235.720856 
L 105.152394 236.051278 
L 104.443801 236.3817 
L 103.735209 236.712122 
L 103.026617 237.042544 
L 102.318024 237.372966 
L 101.609432 237.703388 
L 100.900839 238.03381 
L 100.192247 238.364232 
L 99.483655 238.694654 
L 98.775062 239.025077 
L 98.06647 239.355499 
L 97.357877 239.685921 
L 96.649285 240.016343 
L 95.940693 240.346765 
L 95.2321 240.677187 
L 94.523508 241.007609 
L 93.814915 241.338031 
L 93.106323 241.668453 
L 92.39773 241.998875 
L 91.689138 242.329297 
L 90.980546 242.659719 
L 90.271953 242.990141 
L 89.563361 243.320563 
L 88.854768 243.650985 
L 88.146176 243.981408 
L 87.437584 244.31183 
L 86.728991 244.642252 
L 86.020399 244.972674 
L 85.311806 245.303096 
L 84.603214 245.633518 
L 83.894622 245.96394 
L 83.186029 246.294362 
L 82.477437 246.624784 
L 81.768844 246.955206 
L 81.060252 247.285628 
L 80.351659 247.61605 
L 80.351659 222.483822 
L 81.060252 221.923949 
L 81.768844 221.363557 
L 82.477437 220.802645 
L 83.186029 220.241212 
L 83.894622 219.679258 
L 84.603214 219.116782 
L 85.311806 218.553786 
L 86.020399 217.990267 
L 86.728991 217.426225 
L 87.437584 216.861661 
L 88.146176 216.296573 
L 88.854768 215.730962 
L 89.563361 215.164827 
L 90.271953 214.598168 
L 90.980546 214.030984 
L 91.689138 213.463275 
L 92.39773 212.89504 
L 93.106323 212.326279 
L 93.814915 211.756993 
L 94.523508 211.187179 
L 95.2321 210.616839 
L 95.940693 210.045971 
L 96.649285 209.474576 
L 97.357877 208.902652 
L 98.06647 208.3302 
L 98.775062 207.757219 
L 99.483655 207.183709 
L 100.192247 206.609668 
L 100.900839 206.035098 
L 101.609432 205.459998 
L 102.318024 204.884366 
L 103.026617 204.308203 
L 103.735209 203.731509 
L 104.443801 203.154283 
L 105.152394 202.576524 
L 105.860986 201.998232 
L 106.569579 201.419407 
L 107.278171 200.840049 
L 107.986763 200.260156 
L 108.695356 199.67973 
L 109.403948 199.098768 
L 110.112541 198.517271 
L 110.821133 197.935239 
L 111.529726 197.35267 
L 112.238318 196.769566 
L 112.94691 196.185924 
L 113.655503 195.601746 
L 114.364095 195.017029 
L 115.072688 194.431775 
L 115.78128 193.845983 
L 116.489872 193.259651 
L 117.198465 192.672781 
L 117.907057 192.085371 
L 118.61565 191.497421 
L 119.324242 190.90893 
L 120.032834 190.319899 
L 120.741427 189.730326 
L 121.450019 189.140212 
L 122.158612 188.549556 
L 122.867204 187.958358 
L 123.575797 187.366616 
L 124.284389 186.774332 
L 124.992981 186.181504 
L 125.701574 185.588131 
L 126.410166 184.994214 
L 127.118759 184.399753 
L 127.827351 183.804746 
L 128.535943 183.209193 
L 129.244536 182.613094 
L 129.953128 182.016449 
L 130.661721 181.419257 
L 131.370313 180.821517 
L 132.078905 180.22323 
L 132.787498 179.624394 
L 133.49609 179.02501 
L 134.204683 178.425076 
L 134.913275 177.824594 
L 135.621868 177.223561 
L 136.33046 176.621978 
L 137.039052 176.019844 
L 137.747645 175.417159 
L 138.456237 174.813923 
L 139.16483 174.210134 
L 139.873422 173.605794 
L 140.582014 173.0009 
L 141.290607 172.395453 
L 141.999199 171.789452 
L 142.707792 171.182897 
L 143.416384 170.575788 
L 144.124976 169.968123 
L 144.833569 169.359904 
L 145.542161 168.751128 
L 146.250754 168.141796 
L 146.959346 167.531907 
L 147.667939 166.921462 
L 148.376531 166.310458 
L 149.085123 165.698897 
L 149.793716 165.086777 
L 150.502308 164.474098 
L 151.210901 163.86086 
L 151.919493 163.247062 
L 152.628085 162.632704 
L 153.336678 162.017786 
L 154.04527 161.402306 
L 154.753863 160.786265 
L 155.462455 160.169661 
L 156.171047 159.552496 
L 156.87964 158.934767 
L 157.588232 158.316476 
L 158.296825 157.69762 
L 159.005417 157.078201 
L 159.71401 156.458216 
L 160.422602 155.837667 
L 161.131194 155.216552 
L 161.839787 154.594871 
L 162.548379 153.972624 
L 163.256972 153.34981 
L 163.965564 152.726429 
L 164.674156 152.10248 
L 165.382749 151.477962 
L 166.091341 150.852876 
L 166.799934 150.227221 
L 167.508526 149.600997 
L 168.217118 148.974202 
L 168.925711 148.346837 
L 169.634303 147.718901 
L 170.342896 147.090393 
L 171.051488 146.461314 
L 171.76008 145.831662 
L 172.468673 145.201438 
L 173.177265 144.57064 
L 173.885858 143.939269 
L 174.59445 143.307323 
L 175.303043 142.674803 
L 176.011635 142.041708 
L 176.720227 141.408037 
L 177.42882 140.77379 
L 178.137412 140.138967 
L 178.846005 139.503567 
L 179.554597 138.86759 
L 180.263189 138.231034 
L 180.971782 137.5939 
L 181.680374 136.956188 
L 182.388967 136.317896 
L 183.097559 135.679024 
L 183.806151 135.039572 
L 184.514744 134.39954 
L 185.223336 133.758926 
L 185.931929 133.117731 
L 186.640521 132.475953 
L 187.349114 131.833593 
L 188.057706 131.19065 
L 188.766298 130.547123 
L 189.474891 129.903012 
L 190.183483 129.258317 
L 190.892076 128.613037 
L 191.600668 127.967171 
L 192.30926 127.320719 
L 193.017853 126.673681 
L 193.726445 126.026056 
L 194.435038 125.377844 
L 195.14363 124.729043 
L 195.852222 124.079654 
L 196.560815 123.429677 
L 197.269407 122.77911 
L 197.978 122.127953 
L 198.686592 121.476206 
L 199.395185 120.823868 
L 200.103777 120.170938 
L 200.812369 119.517417 
L 201.520962 118.863304 
L 202.229554 118.208598 
L 202.938147 117.553298 
L 203.646739 116.897405 
L 204.355331 116.240917 
L 205.063924 115.583835 
L 205.772516 114.926157 
L 206.481109 114.267884 
L 207.189701 113.609014 
L 207.898293 112.949548 
L 208.606886 112.289484 
L 209.315478 111.628822 
L 210.024071 110.967563 
L 210.732663 110.305704 
L 211.441256 109.643246 
L 212.149848 108.980188 
L 212.85844 108.31653 
L 213.567033 107.652272 
L 214.275625 106.987411 
L 214.984218 106.321949 
L 215.69281 105.655885 
L 216.401402 104.989218 
L 217.109995 104.321947 
L 217.818587 103.654073 
L 218.52718 102.985594 
L 219.235772 102.31651 
L 219.944364 101.646821 
L 220.652957 100.976526 
L 221.361549 100.305624 
L 222.070142 99.634116 
L 222.778734 98.962 
L 223.487327 98.289276 
L 224.195919 97.615943 
L 224.904511 96.942001 
L 225.613104 96.26745 
L 226.321696 95.592289 
L 227.030289 94.916517 
L 227.738881 94.240134 
L 228.447473 93.563139 
L 229.156066 92.885532 
L 229.864658 92.207312 
L 230.573251 91.528479 
L 231.281843 90.849032 
L 231.990435 90.16897 
L 232.699028 89.488294 
L 233.40762 88.807003 
L 234.116213 88.125095 
L 234.824805 87.442571 
L 235.533397 86.75943 
L 236.24199 86.075672 
L 236.950582 85.391295 
L 237.659175 84.7063 
L 238.367767 84.020685 
L 239.07636 83.334451 
L 239.784952 82.647597 
L 240.493544 81.960121 
L 241.202137 81.272025 
L 241.910729 80.583307 
L 242.619322 79.893966 
L 243.327914 79.204002 
L 244.036506 78.513415 
L 244.745099 77.822203 
L 245.453691 77.130367 
L 246.162284 76.437906 
L 246.870876 75.744819 
L 247.579468 75.051106 
L 248.288061 74.356766 
L 248.996653 73.661798 
L 249.705246 72.966203 
L 250.413838 72.269979 
L 251.122431 71.573126 
L 251.831023 70.875643 
L 252.539615 70.177531 
L 253.248208 69.478787 
L 253.9568 68.779412 
L 254.665393 68.079406 
L 255.373985 67.378767 
L 256.082577 66.677495 
L 256.79117 65.975589 
L 257.499762 65.273049 
L 258.208355 64.569875 
L 258.916947 63.866065 
L 259.625539 63.16162 
L 260.334132 62.456538 
L 261.042724 61.750819 
L 261.751317 61.044462 
L 262.459909 60.337468 
L 263.168502 59.629834 
z
" clip-path="url(#pc9937fd5a8)" style="fill: #ffffff; stroke: #000000; stroke-width: 1.5; stroke-linejoin: miter"/>
   </g>
   <g id="line2d_1">
    <path d="M 80.050073 222.483822 
L 80.050073 247.615975 
" clip-path="url(#pc9937fd5a8)" style="fill: none; stroke: #000000; stroke-width: 1.5; stroke-linecap: round"/>
   </g>
   <g id="line2d_2">
    <path d="M 80.050073 222.491361 
L 80.050073 222.476282 
" clip-path="url(#pc9937fd5a8)" style="fill: none; stroke: #000000; stroke-width: 1.5; stroke-linecap: round"/>
   </g>
   <g id="line2d_3">
    <path d="M 80.050073 247.623515 
L 80.050073 247.608435 
" clip-path="url(#pc9937fd5a8)" style="fill: none; stroke: #000000; stroke-width: 1.5; stroke-linecap: round"/>
   </g>
   <g id="line2d_4">
    <path d="M 80.050073 247.608435 
L 80.050073 248.865047 
" clip-path="url(#pc9937fd5a8)" style="fill: none; stroke: #000000; stroke-width: 1.5; stroke-linecap: round"/>
   </g>
   <g id="line2d_5">
    <path d="M 80.050073 247.623515 
L 80.050073 248.880126 
" clip-path="url(#pc9937fd5a8)" style="fill: none; stroke: #000000; stroke-width: 1.5; stroke-linecap: round"/>
   </g>
   <g id="line2d_6">
    <path d="M 447.704115 222.483822 
L 447.704115 247.615975 
" clip-path="url(#pc9937fd5a8)" style="fill: none; stroke: #000000; stroke-width: 1.5; stroke-linecap: round"/>
   </g>
   <g id="line2d_7">
    <path d="M 447.704115 222.491361 
L 447.704115 222.476282 
" clip-path="url(#pc9937fd5a8)" style="fill: none; stroke: #000000; stroke-width: 1.5; stroke-linecap: round"/>
   </g>
   <g id="line2d_8">
    <path d="M 447.704115 247.623515 
L 447.704115 247.608435 
" clip-path="url(#pc9937fd5a8)" style="fill: none; stroke: #000000; stroke-width: 1.5; stroke-linecap: round"/>
   </g>
   <g id="line2d_9">
    <path d="M 447.704115 247.608435 
L 447.704115 248.865047 
" clip-path="url(#pc9937fd5a8)" style="fill: none; stroke: #000000; stroke-width: 1.5; stroke-linecap: round"/>
   </g>
   <g id="line2d_10">
    <path d="M 447.704115 247.623515 
L 447.704115 248.880126 
" clip-path="url(#pc9937fd5a8)" style="fill: none; stroke: #000000; stroke-width: 1.5; stroke-linecap: round"/>
   </g>
   <g id="line2d_11">
    <path d="M 263.877094 162.036426 
L 263.877094 248.872352 
" clip-path="url(#pc9937fd5a8)" style="fill: none; stroke: #000000; stroke-width: 1.5; stroke-linecap: round"/>
   </g>
   <g id="patch_8">
    <path d="M 327.659676 58.921562 
L 327.520223 58.92114 
L 327.102475 58.920721 
L 326.408259 58.920305 
L 325.44061 58.919894 
L 324.203759 58.919491 
L 322.703116 58.919097 
L 320.945241 58.918713 
L 318.937821 58.918342 
L 316.689635 58.917986 
L 314.210513 58.917644 
L 311.511296 58.91732 
L 308.603786 58.917015 
L 305.500699 58.916729 
L 302.215601 58.916464 
L 298.76286 58.916222 
L 295.157571 58.916003 
L 291.415501 58.915809 
L 287.553013 58.915639 
L 283.586996 58.915496 
L 279.534792 58.915379 
L 275.414121 58.915289 
L 271.243002 58.915226 
L 267.039674 58.915191 
L 262.822516 58.915185 
L 258.60997 58.915205 
L 254.420456 58.915254 
L 250.272293 58.91533 
L 246.18362 58.915434 
L 242.172317 58.915564 
L 238.255923 58.915721 
L 234.451564 58.915903 
L 230.775875 58.91611 
L 227.244929 58.916341 
L 223.874167 58.916594 
L 220.678327 58.916869 
L 217.671384 58.917165 
L 214.866487 58.91748 
L 212.275901 58.917813 
L 209.910954 58.918162 
L 207.781988 58.918526 
L 205.89831 58.918904 
L 204.26816 58.919293 
L 202.898664 58.919691 
L 201.795811 58.920099 
L 200.964424 58.920512 
L 200.408137 58.92093 
L 200.129385 58.921351 
L 200.129385 58.921773 
L 200.408137 58.922194 
L 200.964424 58.922612 
L 201.795811 58.923025 
L 202.898664 58.923432 
L 204.26816 58.923831 
L 205.89831 58.92422 
L 207.781988 58.924598 
L 209.910954 58.924962 
L 212.275901 58.925311 
L 214.866487 58.925644 
L 217.671384 58.925959 
L 220.678327 58.926255 
L 223.874167 58.92653 
L 227.244929 58.926783 
L 230.775875 58.927014 
L 234.451564 58.927221 
L 238.255923 58.927403 
L 242.172317 58.92756 
L 246.18362 58.92769 
L 250.272293 58.927793 
L 254.420456 58.92787 
L 258.60997 58.927918 
L 262.822516 58.927939 
L 267.039674 58.927932 
L 271.243002 58.927897 
L 275.414121 58.927835 
L 279.534792 58.927745 
L 283.586996 58.927628 
L 287.553013 58.927484 
L 291.415501 58.927315 
L 295.157571 58.92712 
L 298.76286 58.926902 
L 302.215601 58.926659 
L 305.500699 58.926395 
L 308.603786 58.926109 
L 311.511296 58.925804 
L 314.210513 58.92548 
L 316.689635 58.925138 
L 318.937821 58.924781 
L 320.945241 58.92441 
L 322.703116 58.924027 
L 324.203759 58.923633 
L 325.44061 58.92323 
L 326.408259 58.922819 
L 327.102475 58.922403 
L 327.520223 58.921983 
L 327.659676 58.921562 
L 327.659676 58.921562 
z
" clip-path="url(#pc9937fd5a8)" style="fill: none; stroke: #000000; stroke-width: 1.1; stroke-linejoin: miter"/>
   </g>
   <g id="patch_9">
    <path d="M 327.659676 65.29982 
L 327.520223 65.299399 
L 327.102475 65.298979 
L 326.408259 65.298563 
L 325.44061 65.298152 
L 324.203759 65.297749 
L 322.703116 65.297355 
L 320.945241 65.296971 
L 318.937821 65.296601 
L 316.689635 65.296244 
L 314.210513 65.295902 
L 311.511296 65.295578 
L 308.603786 65.295273 
L 305.500699 65.294987 
L 302.215601 65.294723 
L 298.76286 65.29448 
L 295.157571 65.294261 
L 291.415501 65.294067 
L 287.553013 65.293897 
L 283.586996 65.293754 
L 279.534792 65.293637 
L 275.414121 65.293547 
L 271.243002 65.293484 
L 267.039674 65.29345 
L 262.822516 65.293443 
L 258.60997 65.293464 
L 254.420456 65.293512 
L 250.272293 65.293589 
L 246.18362 65.293692 
L 242.172317 65.293822 
L 238.255923 65.293979 
L 234.451564 65.294161 
L 230.775875 65.294368 
L 227.244929 65.294599 
L 223.874167 65.294852 
L 220.678327 65.295127 
L 217.671384 65.295423 
L 214.866487 65.295738 
L 212.275901 65.296071 
L 209.910954 65.29642 
L 207.781988 65.296784 
L 205.89831 65.297162 
L 204.26816 65.297551 
L 202.898664 65.29795 
L 201.795811 65.298357 
L 200.964424 65.29877 
L 200.408137 65.299188 
L 200.129385 65.299609 
L 200.129385 65.300031 
L 200.408137 65.300452 
L 200.964424 65.30087 
L 201.795811 65.301283 
L 202.898664 65.30169 
L 204.26816 65.302089 
L 205.89831 65.302478 
L 207.781988 65.302856 
L 209.910954 65.30322 
L 212.275901 65.303569 
L 214.866487 65.303902 
L 217.671384 65.304217 
L 220.678327 65.304513 
L 223.874167 65.304788 
L 227.244929 65.305041 
L 230.775875 65.305272 
L 234.451564 65.305479 
L 238.255923 65.305661 
L 242.172317 65.305818 
L 246.18362 65.305948 
L 250.272293 65.306052 
L 254.420456 65.306128 
L 258.60997 65.306177 
L 262.822516 65.306197 
L 267.039674 65.30619 
L 271.243002 65.306156 
L 275.414121 65.306093 
L 279.534792 65.306003 
L 283.586996 65.305886 
L 287.553013 65.305743 
L 291.415501 65.305573 
L 295.157571 65.305379 
L 298.76286 65.30516 
L 302.215601 65.304917 
L 305.500699 65.304653 
L 308.603786 65.304367 
L 311.511296 65.304062 
L 314.210513 65.303738 
L 316.689635 65.303396 
L 318.937821 65.30304 
L 320.945241 65.302669 
L 322.703116 65.302285 
L 324.203759 65.301891 
L 325.44061 65.301488 
L 326.408259 65.301077 
L 327.102475 65.300661 
L 327.520223 65.300242 
L 327.659676 65.29982 
z
" clip-path="url(#pc9937fd5a8)" style="fill: none; stroke: #000000; stroke-width: 1.1; stroke-linejoin: miter"/>
   </g>
   <g id="patch_10">
    <path d="M 90.680503 222.476282 
L 90.657261 222.476212 
L 90.587636 222.476142 
L 90.471934 222.476072 
L 90.310659 222.476004 
L 90.104517 222.475937 
L 89.85441 222.475871 
L 89.56143 222.475807 
L 89.226861 222.475745 
L 88.852163 222.475686 
L 88.438976 222.475629 
L 87.989106 222.475575 
L 87.504521 222.475524 
L 86.98734 222.475476 
L 86.439824 222.475432 
L 85.864367 222.475392 
L 85.263486 222.475355 
L 84.639807 222.475323 
L 83.996059 222.475295 
L 83.335056 222.475271 
L 82.659689 222.475251 
L 81.972911 222.475236 
L 81.277724 222.475226 
L 80.577169 222.47522 
L 79.87431 222.475219 
L 79.172219 222.475222 
L 78.473966 222.475231 
L 77.782606 222.475243 
L 77.10116 222.475261 
L 76.43261 222.475282 
L 75.779878 222.475308 
L 75.145818 222.475339 
L 74.533203 222.475373 
L 73.944712 222.475412 
L 73.382918 222.475454 
L 72.850278 222.4755 
L 72.349121 222.475549 
L 71.881638 222.475602 
L 71.449874 222.475657 
L 71.055716 222.475715 
L 70.700888 222.475776 
L 70.386942 222.475839 
L 70.11525 222.475904 
L 69.887001 222.47597 
L 69.703192 222.476038 
L 69.564628 222.476107 
L 69.471913 222.476177 
L 69.425455 222.476247 
L 69.425455 222.476317 
L 69.471913 222.476387 
L 69.564628 222.476457 
L 69.703192 222.476526 
L 69.887001 222.476594 
L 70.11525 222.47666 
L 70.386942 222.476725 
L 70.700888 222.476788 
L 71.055716 222.476848 
L 71.449874 222.476907 
L 71.881638 222.476962 
L 72.349121 222.477015 
L 72.850278 222.477064 
L 73.382918 222.47711 
L 73.944712 222.477152 
L 74.533203 222.477191 
L 75.145818 222.477225 
L 75.779878 222.477255 
L 76.43261 222.477281 
L 77.10116 222.477303 
L 77.782606 222.47732 
L 78.473966 222.477333 
L 79.172219 222.477341 
L 79.87431 222.477345 
L 80.577169 222.477344 
L 81.277724 222.477338 
L 81.972911 222.477327 
L 82.659689 222.477312 
L 83.335056 222.477293 
L 83.996059 222.477269 
L 84.639807 222.477241 
L 85.263486 222.477208 
L 85.864367 222.477172 
L 86.439824 222.477131 
L 86.98734 222.477087 
L 87.504521 222.47704 
L 87.989106 222.476989 
L 88.438976 222.476935 
L 88.852163 222.476878 
L 89.226861 222.476818 
L 89.56143 222.476757 
L 89.85441 222.476693 
L 90.104517 222.476627 
L 90.310659 222.47656 
L 90.471934 222.476491 
L 90.587636 222.476422 
L 90.657261 222.476352 
z
" clip-path="url(#pc9937fd5a8)" style="fill: #ffffff; stroke: #000000; stroke-width: 1.1; stroke-linejoin: miter"/>
   </g>
   <g id="patch_11">
    <path d="M 90.680503 222.491361 
L 90.657261 222.491291 
L 90.587636 222.491221 
L 90.471934 222.491152 
L 90.310659 222.491083 
L 90.104517 222.491016 
L 89.85441 222.49095 
L 89.56143 222.490886 
L 89.226861 222.490825 
L 88.852163 222.490765 
L 88.438976 222.490708 
L 87.989106 222.490654 
L 87.504521 222.490603 
L 86.98734 222.490556 
L 86.439824 222.490512 
L 85.864367 222.490471 
L 85.263486 222.490435 
L 84.639807 222.490402 
L 83.996059 222.490374 
L 83.335056 222.49035 
L 82.659689 222.490331 
L 81.972911 222.490316 
L 81.277724 222.490305 
L 80.577169 222.490299 
L 79.87431 222.490298 
L 79.172219 222.490302 
L 78.473966 222.49031 
L 77.782606 222.490323 
L 77.10116 222.49034 
L 76.43261 222.490362 
L 75.779878 222.490388 
L 75.145818 222.490418 
L 74.533203 222.490453 
L 73.944712 222.490491 
L 73.382918 222.490533 
L 72.850278 222.490579 
L 72.349121 222.490628 
L 71.881638 222.490681 
L 71.449874 222.490736 
L 71.055716 222.490795 
L 70.700888 222.490855 
L 70.386942 222.490918 
L 70.11525 222.490983 
L 69.887001 222.491049 
L 69.703192 222.491117 
L 69.564628 222.491186 
L 69.471913 222.491256 
L 69.425455 222.491326 
L 69.425455 222.491396 
L 69.471913 222.491466 
L 69.564628 222.491536 
L 69.703192 222.491605 
L 69.887001 222.491673 
L 70.11525 222.491739 
L 70.386942 222.491804 
L 70.700888 222.491867 
L 71.055716 222.491928 
L 71.449874 222.491986 
L 71.881638 222.492041 
L 72.349121 222.492094 
L 72.850278 222.492143 
L 73.382918 222.492189 
L 73.944712 222.492231 
L 74.533203 222.49227 
L 75.145818 222.492304 
L 75.779878 222.492335 
L 76.43261 222.492361 
L 77.10116 222.492383 
L 77.782606 222.4924 
L 78.473966 222.492412 
L 79.172219 222.492421 
L 79.87431 222.492424 
L 80.577169 222.492423 
L 81.277724 222.492417 
L 81.972911 222.492407 
L 82.659689 222.492392 
L 83.335056 222.492372 
L 83.996059 222.492348 
L 84.639807 222.49232 
L 85.263486 222.492288 
L 85.864367 222.492251 
L 86.439824 222.492211 
L 86.98734 222.492167 
L 87.504521 222.492119 
L 87.989106 222.492068 
L 88.438976 222.492014 
L 88.852163 222.491957 
L 89.226861 222.491898 
L 89.56143 222.491836 
L 89.85441 222.491772 
L 90.104517 222.491706 
L 90.310659 222.491639 
L 90.471934 222.491571 
L 90.587636 222.491501 
L 90.657261 222.491431 
z
" clip-path="url(#pc9937fd5a8)" style="fill: #ffffff; stroke: #000000; stroke-width: 1.1; stroke-linejoin: miter"/>
   </g>
   <g id="patch_12">
    <path d="M 458.334545 222.476282 
L 458.311303 222.476212 
L 458.241679 222.476142 
L 458.125976 222.476072 
L 457.964701 222.476004 
L 457.758559 222.475937 
L 457.508452 222.475871 
L 457.215473 222.475807 
L 456.880903 222.475745 
L 456.506205 222.475686 
L 456.093018 222.475629 
L 455.643149 222.475575 
L 455.158564 222.475524 
L 454.641383 222.475476 
L 454.093866 222.475432 
L 453.518409 222.475392 
L 452.917528 222.475355 
L 452.29385 222.475323 
L 451.650102 222.475295 
L 450.989099 222.475271 
L 450.313732 222.475251 
L 449.626953 222.475236 
L 448.931767 222.475226 
L 448.231212 222.47522 
L 447.528352 222.475219 
L 446.826261 222.475222 
L 446.128009 222.475231 
L 445.436648 222.475243 
L 444.755203 222.475261 
L 444.086652 222.475282 
L 443.43392 222.475308 
L 442.79986 222.475339 
L 442.187245 222.475373 
L 441.598754 222.475412 
L 441.036961 222.475454 
L 440.504321 222.4755 
L 440.003164 222.475549 
L 439.535681 222.475602 
L 439.103916 222.475657 
L 438.709759 222.475715 
L 438.354931 222.475776 
L 438.040985 222.475839 
L 437.769293 222.475904 
L 437.541043 222.47597 
L 437.357235 222.476038 
L 437.21867 222.476107 
L 437.125956 222.476177 
L 437.079497 222.476247 
L 437.079497 222.476317 
L 437.125956 222.476387 
L 437.21867 222.476457 
L 437.357235 222.476526 
L 437.541043 222.476594 
L 437.769293 222.47666 
L 438.040985 222.476725 
L 438.354931 222.476788 
L 438.709759 222.476848 
L 439.103916 222.476907 
L 439.535681 222.476962 
L 440.003164 222.477015 
L 440.504321 222.477064 
L 441.036961 222.47711 
L 441.598754 222.477152 
L 442.187245 222.477191 
L 442.79986 222.477225 
L 443.43392 222.477255 
L 444.086652 222.477281 
L 444.755203 222.477303 
L 445.436648 222.47732 
L 446.128009 222.477333 
L 446.826261 222.477341 
L 447.528352 222.477345 
L 448.231212 222.477344 
L 448.931767 222.477338 
L 449.626953 222.477327 
L 450.313732 222.477312 
L 450.989099 222.477293 
L 451.650102 222.477269 
L 452.29385 222.477241 
L 452.917528 222.477208 
L 453.518409 222.477172 
L 454.093866 222.477131 
L 454.641383 222.477087 
L 455.158564 222.47704 
L 455.643149 222.476989 
L 456.093018 222.476935 
L 456.506205 222.476878 
L 456.880903 222.476818 
L 457.215473 222.476757 
L 457.508452 222.476693 
L 457.758559 222.476627 
L 457.964701 222.47656 
L 458.125976 222.476491 
L 458.241679 222.476422 
L 458.311303 222.476352 
z
" clip-path="url(#pc9937fd5a8)" style="fill: #ffffff; stroke: #000000; stroke-width: 1.1; stroke-linejoin: miter"/>
   </g>
   <g id="patch_13">
    <path d="M 458.334545 222.491361 
L 458.311303 222.491291 
L 458.241679 222.491221 
L 458.125976 222.491152 
L 457.964701 222.491083 
L 457.758559 222.491016 
L 457.508452 222.49095 
L 457.215473 222.490886 
L 456.880903 222.490825 
L 456.506205 222.490765 
L 456.093018 222.490708 
L 455.643149 222.490654 
L 455.158564 222.490603 
L 454.641383 222.490556 
L 454.093866 222.490512 
L 453.518409 222.490471 
L 452.917528 222.490435 
L 452.29385 222.490402 
L 451.650102 222.490374 
L 450.989099 222.49035 
L 450.313732 222.490331 
L 449.626953 222.490316 
L 448.931767 222.490305 
L 448.231212 222.490299 
L 447.528352 222.490298 
L 446.826261 222.490302 
L 446.128009 222.49031 
L 445.436648 222.490323 
L 444.755203 222.49034 
L 444.086652 222.490362 
L 443.43392 222.490388 
L 442.79986 222.490418 
L 442.187245 222.490453 
L 441.598754 222.490491 
L 441.036961 222.490533 
L 440.504321 222.490579 
L 440.003164 222.490628 
L 439.535681 222.490681 
L 439.103916 222.490736 
L 438.709759 222.490795 
L 438.354931 222.490855 
L 438.040985 222.490918 
L 437.769293 222.490983 
L 437.541043 222.491049 
L 437.357235 222.491117 
L 437.21867 222.491186 
L 437.125956 222.491256 
L 437.079497 222.491326 
L 437.079497 222.491396 
L 437.125956 222.491466 
L 437.21867 222.491536 
L 437.357235 222.491605 
L 437.541043 222.491673 
L 437.769293 222.491739 
L 438.040985 222.491804 
L 438.354931 222.491867 
L 438.709759 222.491928 
L 439.103916 222.491986 
L 439.535681 222.492041 
L 440.003164 222.492094 
L 440.504321 222.492143 
L 441.036961 222.492189 
L 441.598754 222.492231 
L 442.187245 222.49227 
L 442.79986 222.492304 
L 443.43392 222.492335 
L 444.086652 222.492361 
L 444.755203 222.492383 
L 445.436648 222.4924 
L 446.128009 222.492412 
L 446.826261 222.492421 
L 447.528352 222.492424 
L 448.231212 222.492423 
L 448.931767 222.492417 
L 449.626953 222.492407 
L 450.313732 222.492392 
L 450.989099 222.492372 
L 451.650102 222.492348 
L 452.29385 222.49232 
L 452.917528 222.492288 
L 453.518409 222.492251 
L 454.093866 222.492211 
L 454.641383 222.492167 
L 455.158564 222.492119 
L 455.643149 222.492068 
L 456.093018 222.492014 
L 456.506205 222.491957 
L 456.880903 222.491898 
L 457.215473 222.491836 
L 457.508452 222.491772 
L 457.758559 222.491706 
L 457.964701 222.491639 
L 458.125976 222.491571 
L 458.241679 222.491501 
L 458.311303 222.491431 
z
" clip-path="url(#pc9937fd5a8)" style="fill: #ffffff; stroke: #000000; stroke-width: 1.1; stroke-linejoin: miter"/>
   </g>
   <g id="line2d_12">
    <path d="M 263.877094 74.38905 
L 264.916911 75.428867 
L 265.956728 76.468684 
L 266.996545 77.508501 
L 268.036361 78.548318 
L 269.076178 79.588135 
L 270.115995 80.627952 
L 271.155812 81.667769 
L 272.195629 82.707585 
L 273.235446 83.747402 
L 274.275263 84.787219 
L 275.31508 85.827036 
L 276.354896 86.866853 
L 277.394713 87.90667 
L 278.43453 88.946487 
L 279.474347 89.986304 
L 280.514164 91.02612 
L 281.553981 92.065937 
L 282.593798 93.105754 
L 283.633615 94.145571 
L 284.673432 95.185388 
L 285.713248 96.225205 
L 286.753065 97.265022 
L 287.792882 98.304839 
L 288.832699 99.344655 
L 289.872516 100.384472 
L 290.912333 101.424289 
L 291.95215 102.464106 
L 292.991967 103.503923 
L 294.031783 104.54374 
L 295.0716 105.583557 
L 296.111417 106.623374 
L 297.151234 107.66319 
L 298.191051 108.703007 
L 299.230868 109.742824 
L 300.270685 110.782641 
L 301.310502 111.822458 
L 302.350318 112.862275 
L 303.390135 113.902092 
L 304.429952 114.941909 
L 305.469769 115.981725 
L 306.509586 117.021542 
L 307.549403 118.061359 
L 308.58922 119.101176 
L 309.629037 120.140993 
L 310.668853 121.18081 
L 311.70867 122.220627 
L 312.748487 123.260444 
L 313.788304 124.30026 
L 314.828121 125.340077 
L 315.867938 126.379894 
L 316.907755 127.419711 
L 317.947572 128.459528 
L 318.987388 129.499345 
L 320.027205 130.539162 
L 321.067022 131.578978 
L 322.106839 132.618795 
L 323.146656 133.658612 
L 324.186473 134.698429 
L 325.22629 135.738246 
L 326.266107 136.778063 
L 327.305923 137.81788 
L 328.34574 138.857697 
L 329.385557 139.897513 
L 330.425374 140.93733 
L 331.465191 141.977147 
L 332.505008 143.016964 
L 333.544825 144.056781 
L 334.584642 145.096598 
L 335.624459 146.136415 
L 336.664275 147.176232 
L 337.704092 148.216048 
L 338.743909 149.255865 
L 339.783726 150.295682 
L 340.823543 151.335499 
L 341.86336 152.375316 
L 342.903177 153.415133 
L 343.942994 154.45495 
L 344.98281 155.494767 
L 346.022627 156.534583 
L 347.062444 157.5744 
L 348.102261 158.614217 
L 349.142078 159.654034 
L 350.181895 160.693851 
L 351.221712 161.733668 
L 352.261529 162.773485 
L 353.301345 163.813302 
L 354.341162 164.853118 
L 355.380979 165.892935 
L 356.420796 166.932752 
L 357.460613 167.972569 
L 358.50043 169.012386 
L 359.540247 170.052203 
L 360.580064 171.09202 
L 361.61988 172.131837 
L 362.659697 173.171653 
L 363.699514 174.21147 
L 364.739331 175.251287 
L 365.779148 176.291104 
L 366.818965 177.330921 
L 367.858782 178.370738 
L 368.898599 179.410555 
L 369.938415 180.450372 
L 370.978232 181.490188 
L 372.018049 182.530005 
L 373.057866 183.569822 
L 374.097683 184.609639 
L 375.1375 185.649456 
L 376.177317 186.689273 
L 377.217134 187.72909 
L 378.256951 188.768906 
L 379.296767 189.808723 
L 380.336584 190.84854 
L 381.376401 191.888357 
L 382.416218 192.928174 
L 383.456035 193.967991 
L 384.495852 195.007808 
L 385.535669 196.047625 
L 386.575486 197.087441 
L 387.615302 198.127258 
" clip-path="url(#pc9937fd5a8)" style="fill: none; stroke: #000000; stroke-width: 2.6; stroke-linecap: round"/>
   </g>
   <g id="line2d_13">
    <path d="M 263.877094 74.38905 
L 262.837277 75.428867 
L 261.79746 76.468684 
L 260.757643 77.508501 
L 259.717826 78.548318 
L 258.67801 79.588135 
L 257.638193 80.627952 
L 256.598376 81.667769 
L 255.558559 82.707585 
L 254.518742 83.747402 
L 253.478925 84.787219 
L 252.439108 85.827036 
L 251.399291 86.866853 
L 250.359475 87.90667 
L 249.319658 88.946487 
L 248.279841 89.986304 
L 247.240024 91.02612 
L 246.200207 92.065937 
L 245.16039 93.105754 
L 244.120573 94.145571 
L 243.080756 95.185388 
L 242.04094 96.225205 
L 241.001123 97.265022 
L 239.961306 98.304839 
L 238.921489 99.344655 
L 237.881672 100.384472 
L 236.841855 101.424289 
L 235.802038 102.464106 
L 234.762221 103.503923 
L 233.722404 104.54374 
L 232.682588 105.583557 
L 231.642771 106.623374 
L 230.602954 107.66319 
L 229.563137 108.703007 
L 228.52332 109.742824 
L 227.483503 110.782641 
L 226.443686 111.822458 
L 225.403869 112.862275 
L 224.364053 113.902092 
L 223.324236 114.941909 
L 222.284419 115.981725 
L 221.244602 117.021542 
L 220.204785 118.061359 
L 219.164968 119.101176 
L 218.125151 120.140993 
L 217.085334 121.18081 
L 216.045518 122.220627 
L 215.005701 123.260444 
L 213.965884 124.30026 
L 212.926067 125.340077 
L 211.88625 126.379894 
L 210.846433 127.419711 
L 209.806616 128.459528 
L 208.766799 129.499345 
L 207.726983 130.539162 
L 206.687166 131.578978 
L 205.647349 132.618795 
L 204.607532 133.658612 
L 203.567715 134.698429 
L 202.527898 135.738246 
L 201.488081 136.778063 
L 200.448264 137.81788 
L 199.408448 138.857697 
L 198.368631 139.897513 
L 197.328814 140.93733 
L 196.288997 141.977147 
L 195.24918 143.016964 
L 194.209363 144.056781 
L 193.169546 145.096598 
L 192.129729 146.136415 
L 191.089912 147.176232 
L 190.050096 148.216048 
L 189.010279 149.255865 
L 187.970462 150.295682 
L 186.930645 151.335499 
L 185.890828 152.375316 
L 184.851011 153.415133 
L 183.811194 154.45495 
L 182.771377 155.494767 
L 181.731561 156.534583 
L 180.691744 157.5744 
L 179.651927 158.614217 
L 178.61211 159.654034 
L 177.572293 160.693851 
L 176.532476 161.733668 
L 175.492659 162.773485 
L 174.452842 163.813302 
L 173.413026 164.853118 
L 172.373209 165.892935 
L 171.333392 166.932752 
L 170.293575 167.972569 
L 169.253758 169.012386 
L 168.213941 170.052203 
L 167.174124 171.09202 
L 166.134307 172.131837 
L 165.094491 173.171653 
L 164.054674 174.21147 
L 163.014857 175.251287 
L 161.97504 176.291104 
L 160.935223 177.330921 
L 159.895406 178.370738 
L 158.855589 179.410555 
L 157.815772 180.450372 
L 156.775956 181.490188 
L 155.736139 182.530005 
L 154.696322 183.569822 
L 153.656505 184.609639 
L 152.616688 185.649456 
L 151.576871 186.689273 
L 150.537054 187.72909 
L 149.497237 188.768906 
L 148.457421 189.808723 
L 147.417604 190.84854 
L 146.377787 191.888357 
L 145.33797 192.928174 
L 144.298153 193.967991 
L 143.258336 195.007808 
L 142.218519 196.047625 
L 141.178702 197.087441 
L 140.138885 198.127258 
" clip-path="url(#pc9937fd5a8)" style="fill: none; stroke: #000000; stroke-width: 2.6; stroke-linecap: round"/>
   </g>
   <g id="line2d_14">
    <path d="M 335.100977 58.921562 
L 334.573825 61.478248 
L 334.046673 64.034933 
L 333.519522 66.591619 
L 332.99237 69.148305 
L 332.465218 71.704991 
L 331.938067 74.261676 
L 331.410915 76.818362 
L 330.883763 79.375048 
L 330.356611 81.931734 
L 329.82946 84.488419 
L 329.302308 87.045105 
L 328.775156 89.601791 
L 328.248005 92.158477 
L 327.720853 94.715162 
L 327.193701 97.271848 
L 326.66655 99.828534 
L 326.139398 102.38522 
L 325.612246 104.941905 
L 325.085094 107.498591 
L 324.557943 110.055277 
L 324.030791 112.611963 
L 323.503639 115.168648 
L 322.976488 117.725334 
L 322.449336 120.28202 
L 321.922184 122.838706 
L 321.395033 125.395391 
L 320.867881 127.952077 
L 320.340729 130.508763 
L 319.813577 133.065449 
L 319.286426 135.622134 
L 318.759274 138.17882 
L 318.232122 140.735506 
L 317.704971 143.292192 
L 317.177819 145.848877 
L 316.650667 148.405563 
L 316.123515 150.962249 
L 315.596364 153.518935 
L 315.069212 156.07562 
L 314.54206 158.632306 
L 314.014909 161.188992 
L 313.840116 163.745678 
L 313.840116 166.302363 
L 313.840116 168.859049 
L 313.840116 171.415735 
L 313.840116 173.972421 
L 313.840116 176.529106 
L 313.840116 179.085792 
L 313.840116 181.642478 
L 313.840116 184.199164 
L 313.840116 186.755849 
L 313.840116 189.312535 
L 313.840116 191.869221 
L 313.840116 194.425907 
L 313.840116 196.982592 
L 313.840116 199.539278 
L 313.840116 202.095964 
L 313.840116 204.65265 
L 313.840116 207.209335 
L 313.840116 209.766021 
L 313.840116 212.322707 
L 313.840116 214.879393 
L 313.840116 217.436078 
L 313.840116 219.992764 
L 313.840116 222.54945 
L 313.840116 225.106136 
L 313.840116 227.662821 
L 313.840116 230.219507 
L 313.840116 232.776193 
L 313.840116 235.332879 
L 313.840116 237.889564 
L 313.840116 240.44625 
L 313.840116 243.002936 
L 313.840116 245.559622 
L 313.840116 248.116307 
L 313.840116 250.672993 
L 313.840116 253.229679 
L 313.840116 255.786365 
L 313.840116 258.34305 
L 313.840116 260.899736 
" clip-path="url(#pc9937fd5a8)" style="fill: none; stroke-dasharray: 6,4; stroke-dashoffset: 0; stroke: #000000"/>
   </g>
   <g id="line2d_15">
    <path d="M 192.653211 58.921562 
L 193.180363 61.478248 
L 193.707514 64.034933 
L 194.234666 66.591619 
L 194.761818 69.148305 
L 195.28897 71.704991 
L 195.816121 74.261676 
L 196.343273 76.818362 
L 196.870425 79.375048 
L 197.397576 81.931734 
L 197.924728 84.488419 
L 198.45188 87.045105 
L 198.979032 89.601791 
L 199.506183 92.158477 
L 200.033335 94.715162 
L 200.560487 97.271848 
L 201.087638 99.828534 
L 201.61479 102.38522 
L 202.141942 104.941905 
L 202.669093 107.498591 
L 203.196245 110.055277 
L 203.723397 112.611963 
L 204.250549 115.168648 
L 204.7777 117.725334 
L 205.304852 120.28202 
L 205.832004 122.838706 
L 206.359155 125.395391 
L 206.886307 127.952077 
L 207.413459 130.508763 
L 207.94061 133.065449 
L 208.467762 135.622134 
L 208.994914 138.17882 
L 209.522066 140.735506 
L 210.049217 143.292192 
L 210.576369 145.848877 
L 211.103521 148.405563 
L 211.630672 150.962249 
L 212.157824 153.518935 
L 212.684976 156.07562 
L 213.212128 158.632306 
L 213.739279 161.188992 
L 213.914072 163.745678 
L 213.914072 166.302363 
L 213.914072 168.859049 
L 213.914072 171.415735 
L 213.914072 173.972421 
L 213.914072 176.529106 
L 213.914072 179.085792 
L 213.914072 181.642478 
L 213.914072 184.199164 
L 213.914072 186.755849 
L 213.914072 189.312535 
L 213.914072 191.869221 
L 213.914072 194.425907 
L 213.914072 196.982592 
L 213.914072 199.539278 
L 213.914072 202.095964 
L 213.914072 204.65265 
L 213.914072 207.209335 
L 213.914072 209.766021 
L 213.914072 212.322707 
L 213.914072 214.879393 
L 213.914072 217.436078 
L 213.914072 219.992764 
L 213.914072 222.54945 
L 213.914072 225.106136 
L 213.914072 227.662821 
L 213.914072 230.219507 
L 213.914072 232.776193 
L 213.914072 235.332879 
L 213.914072 237.889564 
L 213.914072 240.44625 
L 213.914072 243.002936 
L 213.914072 245.559622 
L 213.914072 248.116307 
L 213.914072 250.672993 
L 213.914072 253.229679 
L 213.914072 255.786365 
L 213.914072 258.34305 
L 213.914072 260.899736 
" clip-path="url(#pc9937fd5a8)" style="fill: none; stroke-dasharray: 6,4; stroke-dashoffset: 0; stroke: #000000"/>
   </g>
  </g>
 </g>
 <defs>
  <clipPath id="pc9937fd5a8">
   <rect x="7.2" y="26.597656" width="513.36" height="266.619608"/>
  </clipPath>
 </defs>
</svg>
