<?xml version="1.0" encoding="utf-8" standalone="no"?>
<!DOCTYPE svg PUBLIC "-//W3C//DTD SVG 1.1//EN"
  "http://www.w3.org/Graphics/SVG/1.1/DTD/svg11.dtd">
<svg xmlns:xlink="http://www.w3.org/1999/xlink" width="454.701153pt" height="444.053656pt" viewBox="0 0 454.701153 444.053656" xmlns="http://www.w3.org/2000/svg" version="1.1">
 <metadata>
  <rdf:RDF xmlns:dc="http://purl.org/dc/elements/1.1/" xmlns:cc="http://creativecommons.org/ns#" xmlns:rdf="http://www.w3.org/1999/02/22-rdf-syntax-ns#">
   <cc:Work>
    <dc:type rdf:resource="http://purl.org/dc/dcmitype/StillImage"/>
    <dc:date>2026-08-23T17:24:18.704346</dc:date>
    <dc:format>image/svg+xml</dc:format>
    <dc:creator>
     <cc:Agent>
      <dc:title>Matplotlib v3.11.1, https://matplotlib.org/</dc:title>
     </cc:Agent>
    </dc:creator>
   </cc:Work>
  </rdf:RDF>
 </metadata>
 <defs>
  <style type="text/css">*{stroke-linejoin: round; stroke-linecap: butt}</style>
 </defs>
 <g id="figure_1">
  <g id="patch_1">
   <path d="M 0 444.053656 
L 454.701153 444.053656 
L 454.701153 -0 
L 0 -0 
z
" style="fill: #ffffff"/>
  </g>
  <g id="axes_1">
   <g id="patch_2">
    <path d="M 332.846399 345.999089 
Q 308.126797 332.51567 283.407196 319.032251 
" style="fill: none; stroke: #000000; stroke-width: 0.9; stroke-linecap: round"/>
   </g>
   <g id="text_1">
    <!-- 1 -->
    <g transform="translate(336.59934 353.678896) scale(0.13 -0.13)">
     <defs>
      <path id="DejaVuSans-14" d="M 794 531 
L 1825 531 
L 1825 4091 
L 703 3866 
L 703 4441 
L 1819 4666 
L 2450 4666 
L 2450 531 
L 3481 531 
L 3481 0 
L 794 0 
L 794 531 
z
" transform="scale(0.015625)"/>
     </defs>
     <use xlink:href="#DejaVuSans-14"/>
    </g>
   </g>
   <g id="patch_3">
    <path d="M 65.512726 265.513604 
Q 94.089827 284.872286 122.666929 304.230968 
" style="fill: none; stroke: #000000; stroke-width: 0.9; stroke-linecap: round"/>
   </g>
   <g id="text_2">
    <!-- 2 -->
    <g transform="translate(53.586049 263.612748) scale(0.13 -0.13)">
     <defs>
      <path id="DejaVuSans-15" d="M 1228 531 
L 3431 531 
L 3431 0 
L 469 0 
L 469 531 
Q 828 903 1448 1529 
Q 2069 2156 2228 2338 
Q 2531 2678 2651 2914 
Q 2772 3150 2772 3378 
Q 2772 3750 2511 3984 
Q 2250 4219 1831 4219 
Q 1534 4219 1204 4116 
Q 875 4013 500 3803 
L 500 4441 
Q 881 4594 1212 4672 
Q 1544 4750 1819 4750 
Q 2544 4750 2975 4387 
Q 3406 4025 3406 3419 
Q 3406 3131 3298 2873 
Q 3191 2616 2906 2266 
Q 2828 2175 2409 1742 
Q 1991 1309 1228 531 
z
" transform="scale(0.015625)"/>
     </defs>
     <use xlink:href="#DejaVuSans-15"/>
    </g>
   </g>
   <g id="patch_4">
    <path d="M 435.35686 329.803573 
Q 408.074163 319.799918 380.791466 309.796263 
" style="fill: none; stroke: #000000; stroke-width: 0.9; stroke-linecap: round"/>
   </g>
   <g id="text_3">
    <!-- 3 -->
    <g transform="translate(439.229903 336.117038) scale(0.13 -0.13)">
     <defs>
      <path id="DejaVuSans-16" d="M 2597 2516 
Q 3050 2419 3304 2112 
Q 3559 1806 3559 1356 
Q 3559 666 3084 287 
Q 2609 -91 1734 -91 
Q 1441 -91 1130 -33 
Q 819 25 488 141 
L 488 750 
Q 750 597 1062 519 
Q 1375 441 1716 441 
Q 2309 441 2620 675 
Q 2931 909 2931 1356 
Q 2931 1769 2642 2001 
Q 2353 2234 1838 2234 
L 1294 2234 
L 1294 2753 
L 1863 2753 
Q 2328 2753 2575 2939 
Q 2822 3125 2822 3475 
Q 2822 3834 2567 4026 
Q 2313 4219 1838 4219 
Q 1578 4219 1281 4162 
Q 984 4106 628 3988 
L 628 4550 
Q 988 4650 1302 4700 
Q 1616 4750 1894 4750 
Q 2613 4750 3031 4423 
Q 3450 4097 3450 3541 
Q 3450 3153 3228 2886 
Q 3006 2619 2597 2516 
z
" transform="scale(0.015625)"/>
     </defs>
     <use xlink:href="#DejaVuSans-16"/>
    </g>
   </g>
   <g id="patch_5">
    <path d="M 409.221176 265.251239 
Q 391.182482 278.584188 373.143787 291.917136 
" style="fill: none; stroke: #000000; stroke-width: 0.9; stroke-linecap: round"/>
   </g>
   <g id="text_4">
    <!-- 3a -->
    <g transform="translate(412.829981 259.959885) scale(0.13 -0.13)">
     <defs>
      <path id="DejaVuSans-44" d="M 2194 1759 
Q 1497 1759 1228 1600 
Q 959 1441 959 1056 
Q 959 750 1161 570 
Q 1363 391 1709 391 
Q 2188 391 2477 730 
Q 2766 1069 2766 1631 
L 2766 1759 
L 2194 1759 
z
M 3341 1997 
L 3341 0 
L 2766 0 
L 2766 531 
Q 2569 213 2275 61 
Q 1981 -91 1556 -91 
Q 1019 -91 701 211 
Q 384 513 384 1019 
Q 384 1609 779 1909 
Q 1175 2209 1959 2209 
L 2766 2209 
L 2766 2266 
Q 2766 2663 2505 2880 
Q 2244 3097 1772 3097 
Q 1472 3097 1187 3025 
Q 903 2953 641 2809 
L 641 3341 
Q 956 3463 1253 3523 
Q 1550 3584 1831 3584 
Q 2591 3584 2966 3190 
Q 3341 2797 3341 1997 
z
" transform="scale(0.015625)"/>
     </defs>
     <use xlink:href="#DejaVuSans-16"/>
     <use xlink:href="#DejaVuSans-44" transform="translate(63.625 0)"/>
    </g>
   </g>
   <g id="patch_6">
    <path d="M 27.3781 189.281944 
Q 47.447171 175.634976 67.516243 161.988007 
" style="fill: none; stroke: #000000; stroke-width: 0.9; stroke-linecap: round"/>
   </g>
   <g id="text_5">
    <!-- 3b -->
    <g transform="translate(7.2 200.762279) scale(0.13 -0.13)">
     <defs>
      <path id="DejaVuSans-45" d="M 3116 1747 
Q 3116 2381 2855 2742 
Q 2594 3103 2138 3103 
Q 1681 3103 1420 2742 
Q 1159 2381 1159 1747 
Q 1159 1113 1420 752 
Q 1681 391 2138 391 
Q 2594 391 2855 752 
Q 3116 1113 3116 1747 
z
M 1159 2969 
Q 1341 3281 1617 3432 
Q 1894 3584 2278 3584 
Q 2916 3584 3314 3078 
Q 3713 2572 3713 1747 
Q 3713 922 3314 415 
Q 2916 -91 2278 -91 
Q 1894 -91 1617 61 
Q 1341 213 1159 525 
L 1159 0 
L 581 0 
L 581 4863 
L 1159 4863 
L 1159 2969 
z
" transform="scale(0.015625)"/>
     </defs>
     <use xlink:href="#DejaVuSans-16"/>
     <use xlink:href="#DejaVuSans-45" transform="translate(63.625 0)"/>
    </g>
   </g>
   <g id="patch_7">
    <path d="M 409.065351 240.897546 
Q 391.025655 258.078209 372.985959 275.258872 
" style="fill: none; stroke: #000000; stroke-width: 0.9; stroke-linecap: round"/>
   </g>
   <g id="text_6">
    <!-- 4 -->
    <g transform="translate(412.516489 237.049011) scale(0.13 -0.13)">
     <defs>
      <path id="DejaVuSans-17" d="M 2419 4116 
L 825 1625 
L 2419 1625 
L 2419 4116 
z
M 2253 4666 
L 3047 4666 
L 3047 1625 
L 3713 1625 
L 3713 1100 
L 3047 1100 
L 3047 0 
L 2419 0 
L 2419 1100 
L 313 1100 
L 313 1709 
L 2253 4666 
z
" transform="scale(0.015625)"/>
     </defs>
     <use xlink:href="#DejaVuSans-17"/>
    </g>
   </g>
   <g id="patch_8">
    <path d="M 199.980762 363.210296 
Q 212.641985 341.264176 225.303209 319.318055 
" style="fill: none; stroke: #000000; stroke-width: 0.9; stroke-linecap: round"/>
   </g>
   <g id="text_7">
    <!-- 5 -->
    <g transform="translate(189.942734 376.81808) scale(0.13 -0.13)">
     <defs>
      <path id="DejaVuSans-18" d="M 691 4666 
L 3169 4666 
L 3169 4134 
L 1269 4134 
L 1269 2991 
Q 1406 3038 1543 3061 
Q 1681 3084 1819 3084 
Q 2600 3084 3056 2656 
Q 3513 2228 3513 1497 
Q 3513 744 3044 326 
Q 2575 -91 1722 -91 
Q 1428 -91 1123 -41 
Q 819 9 494 109 
L 494 744 
Q 775 591 1075 516 
Q 1375 441 1709 441 
Q 2250 441 2565 725 
Q 2881 1009 2881 1497 
Q 2881 1984 2565 2268 
Q 2250 2553 1709 2553 
Q 1456 2553 1204 2497 
Q 953 2441 691 2322 
L 691 4666 
z
" transform="scale(0.015625)"/>
     </defs>
     <use xlink:href="#DejaVuSans-18"/>
    </g>
   </g>
   <g id="patch_9">
    <path d="M 264.594912 222.117177 
Q 238.44026 229.332254 212.285608 236.54733 
" style="fill: none; stroke: #000000; stroke-width: 0.9; stroke-linecap: round"/>
   </g>
   <g id="text_8">
    <!-- 6 -->
    <g transform="translate(268.523159 223.269614) scale(0.13 -0.13)">
     <defs>
      <path id="DejaVuSans-19" d="M 2113 2584 
Q 1688 2584 1439 2293 
Q 1191 2003 1191 1497 
Q 1191 994 1439 701 
Q 1688 409 2113 409 
Q 2538 409 2786 701 
Q 3034 994 3034 1497 
Q 3034 2003 2786 2293 
Q 2538 2584 2113 2584 
z
M 3366 4563 
L 3366 3988 
Q 3128 4100 2886 4159 
Q 2644 4219 2406 4219 
Q 1781 4219 1451 3797 
Q 1122 3375 1075 2522 
Q 1259 2794 1537 2939 
Q 1816 3084 2150 3084 
Q 2853 3084 3261 2657 
Q 3669 2231 3669 1497 
Q 3669 778 3244 343 
Q 2819 -91 2113 -91 
Q 1303 -91 875 529 
Q 447 1150 447 2328 
Q 447 3434 972 4092 
Q 1497 4750 2381 4750 
Q 2619 4750 2861 4703 
Q 3103 4656 3366 4563 
z
" transform="scale(0.015625)"/>
     </defs>
     <use xlink:href="#DejaVuSans-19"/>
    </g>
   </g>
   <g id="text_9">
    <!-- Şekil 1 -->
    <g transform="translate(8.178599 18.597656) scale(0.15 -0.15)">
     <defs>
      <path id="DejaVuSans-Bold-120" d="M 3834 4519 
L 3834 3531 
Q 3450 3703 3084 3790 
Q 2719 3878 2394 3878 
Q 1963 3878 1756 3759 
Q 1550 3641 1550 3391 
Q 1550 3203 1689 3098 
Q 1828 2994 2194 2919 
L 2706 2816 
Q 3484 2659 3812 2340 
Q 4141 2022 4141 1434 
Q 4141 663 3683 286 
Q 3225 -91 2284 -91 
Q 1841 -91 1394 -6 
Q 947 78 500 244 
L 500 1259 
Q 947 1022 1364 901 
Q 1781 781 2169 781 
Q 2563 781 2772 912 
Q 2981 1044 2981 1288 
Q 2981 1506 2839 1625 
Q 2697 1744 2272 1838 
L 1806 1941 
Q 1106 2091 782 2419 
Q 459 2747 459 3303 
Q 459 4000 909 4375 
Q 1359 4750 2203 4750 
Q 2588 4750 2994 4692 
Q 3400 4634 3834 4519 
z
M 2572 0 
Q 2754 -194 2839 -359 
Q 2925 -525 2925 -672 
Q 2925 -969 2733 -1111 
Q 2541 -1253 2144 -1253 
Q 1994 -1253 1834 -1233 
Q 1675 -1213 1513 -1172 
L 1510 -697 
Q 1666 -747 1795 -770 
Q 1925 -794 2029 -794 
Q 2210 -794 2311 -722 
Q 2413 -650 2413 -525 
Q 2413 -444 2346 -316 
Q 2279 -188 2138 0 
L 2572 0 
z
" transform="scale(0.015625)"/>
      <path id="DejaVuSans-Bold-48" d="M 4031 1759 
L 4031 1441 
L 1416 1441 
Q 1456 1047 1700 850 
Q 1944 653 2381 653 
Q 2734 653 3104 758 
Q 3475 863 3866 1075 
L 3866 213 
Q 3469 63 3072 -14 
Q 2675 -91 2278 -91 
Q 1328 -91 801 392 
Q 275 875 275 1747 
Q 275 2603 792 3093 
Q 1309 3584 2216 3584 
Q 3041 3584 3536 3087 
Q 4031 2591 4031 1759 
z
M 2881 2131 
Q 2881 2450 2695 2645 
Q 2509 2841 2209 2841 
Q 1884 2841 1681 2658 
Q 1478 2475 1428 2131 
L 2881 2131 
z
" transform="scale(0.015625)"/>
      <path id="DejaVuSans-Bold-4e" d="M 538 4863 
L 1656 4863 
L 1656 2216 
L 2944 3500 
L 4244 3500 
L 2534 1894 
L 4378 0 
L 3022 0 
L 1656 1459 
L 1656 0 
L 538 0 
L 538 4863 
z
" transform="scale(0.015625)"/>
      <path id="DejaVuSans-Bold-4c" d="M 538 3500 
L 1656 3500 
L 1656 0 
L 538 0 
L 538 3500 
z
M 538 4863 
L 1656 4863 
L 1656 3950 
L 538 3950 
L 538 4863 
z
" transform="scale(0.015625)"/>
      <path id="DejaVuSans-Bold-4f" d="M 538 4863 
L 1656 4863 
L 1656 0 
L 538 0 
L 538 4863 
z
" transform="scale(0.015625)"/>
      <path id="DejaVuSans-Bold-3" transform="scale(0.015625)"/>
      <path id="DejaVuSans-Bold-14" d="M 750 831 
L 1813 831 
L 1813 3847 
L 722 3622 
L 722 4441 
L 1806 4666 
L 2950 4666 
L 2950 831 
L 4013 831 
L 4013 0 
L 750 0 
L 750 831 
z
" transform="scale(0.015625)"/>
     </defs>
     <use xlink:href="#DejaVuSans-Bold-120"/>
     <use xlink:href="#DejaVuSans-Bold-48" transform="translate(72.015625 0)"/>
     <use xlink:href="#DejaVuSans-Bold-4e" transform="translate(139.84375 0)"/>
     <use xlink:href="#DejaVuSans-Bold-4c" transform="translate(206.34375 0)"/>
     <use xlink:href="#DejaVuSans-Bold-4f" transform="translate(240.625 0)"/>
     <use xlink:href="#DejaVuSans-Bold-3" transform="translate(274.90625 0)"/>
     <use xlink:href="#DejaVuSans-Bold-14" transform="translate(309.71875 0)"/>
    </g>
   </g>
   <g id="patch_10">
    <path d="M 124.321648 340.175248 
L 125.320253 340.035178 
L 126.318482 339.89555 
L 127.316337 339.756364 
L 128.313817 339.61762 
L 129.310922 339.479318 
L 130.307654 339.341456 
L 131.304012 339.204034 
L 132.299996 339.067053 
L 133.295608 338.930511 
L 134.290847 338.794408 
L 135.285713 338.658744 
L 136.280208 338.523519 
L 137.274331 338.388731 
L 138.268083 338.254382 
L 139.261464 338.120469 
L 140.254474 337.986994 
L 141.247113 337.853955 
L 142.239383 337.721352 
L 143.231283 337.589185 
L 144.222814 337.457453 
L 145.213975 337.326156 
L 146.204769 337.195294 
L 147.195193 337.064865 
L 148.18525 336.934871 
L 149.174939 336.80531 
L 150.16426 336.676182 
L 151.153215 336.547487 
L 152.141803 336.419224 
L 153.130024 336.291393 
L 154.117879 336.163993 
L 155.105369 336.037024 
L 156.092493 335.910487 
L 157.079252 335.784379 
L 158.065646 335.658702 
L 159.051675 335.533454 
L 160.037341 335.408635 
L 161.022642 335.284246 
L 162.00758 335.160284 
L 162.992155 335.036751 
L 163.976367 334.913646 
L 164.960217 334.790968 
L 165.943704 334.668717 
L 166.926829 334.546893 
L 167.909592 334.425494 
L 168.891994 334.304522 
L 169.874036 334.183976 
L 170.855716 334.063854 
L 171.837036 333.944157 
L 172.817996 333.824885 
L 173.798597 333.706036 
L 174.778837 333.587612 
L 175.758719 333.46961 
L 176.738242 333.352032 
L 177.717406 333.234876 
L 178.696212 333.118143 
L 179.67466 333.001831 
L 180.652751 332.885941 
L 181.630484 332.770472 
L 182.607861 332.655423 
L 183.58488 332.540795 
L 184.561543 332.426588 
L 185.537851 332.312799 
L 186.513802 332.199431 
L 187.489398 332.086481 
L 188.464639 331.973949 
L 189.439525 331.861837 
L 190.414056 331.750141 
L 191.388233 331.638864 
L 192.362056 331.528004 
L 193.335526 331.41756 
L 194.308642 331.307533 
L 195.281405 331.197922 
L 196.253815 331.088727 
L 197.225873 330.979948 
L 198.197579 330.871583 
L 199.168933 330.763634 
L 200.139935 330.656098 
L 201.110586 330.548977 
L 202.080886 330.442269 
L 203.050836 330.335975 
L 204.020434 330.230094 
L 204.989683 330.124625 
L 205.958582 330.019569 
L 206.927132 329.914924 
L 207.895332 329.810691 
L 208.863184 329.70687 
L 209.830687 329.603459 
L 210.797841 329.500459 
L 211.764647 329.397869 
L 212.731106 329.295689 
L 213.697217 329.193919 
L 214.662981 329.092558 
L 215.628399 328.991606 
L 216.593469 328.891062 
L 217.558193 328.790926 
L 218.522571 328.691199 
L 219.486604 328.591879 
L 220.450291 328.492966 
L 221.413633 328.394459 
L 222.37663 328.29636 
L 223.339282 328.198666 
L 224.30159 328.101379 
L 225.263554 328.004497 
L 226.225174 327.90802 
L 227.186451 327.811948 
L 228.147384 327.71628 
L 229.107975 327.621017 
L 230.068223 327.526157 
L 231.028129 327.431701 
L 231.987693 327.337648 
L 232.946914 327.243998 
L 233.905795 327.150751 
L 234.864334 327.057905 
L 235.822532 326.965462 
L 236.78039 326.87342 
L 237.737907 326.781779 
L 238.695084 326.69054 
L 239.651921 326.5997 
L 240.608418 326.509261 
L 241.564577 326.419222 
L 242.520396 326.329583 
L 243.475877 326.240342 
L 244.431019 326.151501 
L 245.385823 326.063058 
L 246.340289 325.975014 
L 247.294417 325.887368 
L 248.248208 325.800119 
L 249.201662 325.713268 
L 250.154779 325.626813 
L 251.107559 325.540755 
L 252.060004 325.455094 
L 253.012112 325.369829 
L 253.963884 325.284959 
L 254.915321 325.200485 
L 255.866423 325.116406 
L 256.81719 325.032722 
L 257.767622 324.949432 
L 258.71772 324.866537 
L 259.667483 324.784035 
L 260.616913 324.701927 
L 261.566009 324.620212 
L 262.514772 324.53889 
L 263.463201 324.457961 
L 264.411298 324.377423 
L 265.359062 324.297278 
L 266.306494 324.217525 
L 267.253594 324.138163 
L 268.200362 324.059191 
L 269.146799 323.980611 
L 270.092904 323.902421 
L 271.038679 323.824621 
L 271.984123 323.747211 
L 272.929236 323.670191 
L 273.874019 323.59356 
L 274.818472 323.517317 
L 275.762596 323.441463 
L 276.70639 323.365998 
L 277.649854 323.29092 
L 278.59299 323.216231 
L 279.535798 323.141928 
L 280.478277 323.068013 
L 281.420427 322.994484 
L 282.36225 322.921342 
L 283.303745 322.848586 
L 284.244913 322.776216 
L 285.185754 322.704231 
L 286.126268 322.632632 
L 287.066455 322.561418 
L 288.006316 322.490588 
L 288.945851 322.420143 
L 289.88506 322.350081 
L 290.823943 322.280404 
L 291.762501 322.21111 
L 292.700734 322.142199 
L 293.638642 322.073671 
L 294.576226 322.005526 
L 295.513485 321.937763 
L 296.45042 321.870382 
L 297.387031 321.803383 
L 298.323319 321.736765 
L 299.259283 321.670528 
L 300.194924 321.604672 
L 301.130243 321.539197 
L 302.065238 321.474102 
L 302.999912 321.409387 
L 303.934263 321.345051 
L 304.868292 321.281095 
L 305.802 321.217518 
L 306.735386 321.15432 
L 307.668451 321.0915 
L 308.601196 321.029059 
L 309.533619 320.966995 
L 310.465723 320.90531 
L 311.397506 320.844001 
L 312.328969 320.78307 
L 313.260112 320.722515 
L 314.190937 320.662337 
L 315.121441 320.602535 
L 316.051627 320.543109 
L 316.981495 320.484059 
L 317.911043 320.425384 
L 318.840274 320.367084 
L 319.769186 320.309159 
L 320.697781 320.251609 
L 321.626058 320.194433 
L 322.554018 320.13763 
L 323.481661 320.081202 
L 324.408987 320.025147 
L 325.335997 319.969465 
L 326.26269 319.914156 
L 327.189067 319.859219 
L 328.115129 319.804655 
L 329.040874 319.750463 
L 329.966305 319.696642 
L 330.89142 319.643193 
L 331.81622 319.590115 
L 332.740705 319.537408 
L 333.664876 319.485072 
L 334.588733 319.433106 
L 335.512276 319.38151 
L 336.435505 319.330284 
L 337.358421 319.279428 
L 338.281023 319.22894 
L 339.203312 319.178822 
L 340.125289 319.129073 
L 341.046952 319.079692 
L 341.968304 319.030679 
L 342.889343 318.982034 
L 343.81007 318.933757 
L 344.730486 318.885847 
L 345.65059 318.838304 
L 346.570383 318.791128 
L 347.489865 318.744318 
L 348.409037 318.697875 
L 349.327897 318.651798 
L 350.246448 318.606087 
L 351.164688 318.560741 
L 352.082618 318.515761 
L 353.000239 318.471145 
L 353.91755 318.426894 
L 354.834553 318.383008 
L 355.751246 318.339485 
L 356.66763 318.296327 
L 357.583706 318.253532 
L 358.499474 318.211101 
L 359.414933 318.169033 
L 360.330085 318.127327 
L 361.244929 318.085984 
L 362.159466 318.045004 
L 363.073695 318.004386 
L 363.987618 317.964129 
L 364.901234 317.924234 
L 365.814543 317.8847 
L 366.727546 317.845528 
L 367.640243 317.806716 
L 368.552634 317.768265 
L 369.464719 317.730173 
L 370.376499 317.692442 
L 371.287974 317.655071 
L 386.043848 300.262602 
L 385.26709 300.141185 
L 384.490332 300.019768 
L 383.713575 299.898351 
L 382.936817 299.776934 
L 382.160059 299.655517 
L 381.383302 299.5341 
L 380.606544 299.412683 
L 379.829787 299.291266 
L 379.053029 299.169849 
L 378.276271 299.048432 
L 377.499514 298.927015 
L 376.722756 298.805598 
L 375.945998 298.684181 
L 375.169241 298.562763 
L 374.392483 298.441346 
L 373.615725 298.319929 
L 372.838968 298.198512 
L 372.06221 298.077095 
L 371.285452 297.955678 
L 370.508695 297.834261 
L 369.731937 297.712844 
L 368.955179 297.591427 
L 368.178422 297.47001 
L 367.401664 297.348593 
L 366.624906 297.227176 
L 365.848149 297.105759 
L 365.071391 296.984342 
L 364.294633 296.862925 
L 363.517876 296.741508 
L 362.741118 296.62009 
L 361.96436 296.498673 
L 361.187603 296.377256 
L 360.410845 296.255839 
L 359.634087 296.134422 
L 358.85733 296.013005 
L 358.080572 295.891588 
L 357.303814 295.770171 
L 356.527057 295.648754 
L 355.750299 295.527337 
L 354.973541 295.40592 
L 354.196784 295.284503 
L 353.420026 295.163086 
L 352.643268 295.041669 
L 351.866511 294.920252 
L 351.089753 294.798834 
L 350.312995 294.677417 
L 349.536238 294.556 
L 348.75948 294.434583 
L 347.982722 294.313166 
L 347.205965 294.191749 
L 346.429207 294.070332 
L 345.652449 293.948915 
L 344.875692 293.827498 
L 344.098934 293.706081 
L 343.322176 293.584664 
L 342.545419 293.463247 
L 341.768661 293.34183 
L 340.991903 293.220413 
L 340.215146 293.098996 
L 339.438388 292.977579 
L 338.66163 292.856161 
L 337.884873 292.734744 
L 337.108115 292.613327 
L 336.331357 292.49191 
L 335.5546 292.370493 
L 334.777842 292.249076 
L 334.001084 292.127659 
L 333.224327 292.006242 
L 332.447569 291.884825 
L 331.670812 291.763408 
L 330.894054 291.641991 
L 330.117296 291.520574 
L 329.340539 291.399157 
L 328.563781 291.27774 
L 327.787023 291.156323 
L 327.010266 291.034906 
L 326.233508 290.913488 
L 325.45675 290.792071 
L 324.679993 290.670654 
L 323.903235 290.549237 
L 323.126477 290.42782 
L 322.34972 290.306403 
L 321.572962 290.184986 
L 320.796204 290.063569 
L 320.019447 289.942152 
L 319.242689 289.820735 
L 318.465931 289.699318 
L 317.689174 289.577901 
L 316.912416 289.456484 
L 316.135658 289.335067 
L 315.358901 289.21365 
L 314.582143 289.092233 
L 313.805385 288.970815 
L 313.028628 288.849398 
L 312.25187 288.727981 
L 311.475112 288.606564 
L 310.698355 288.485147 
L 309.921597 288.36373 
L 309.144839 288.242313 
L 308.368082 288.120896 
L 307.591324 287.999479 
L 306.814566 287.878062 
L 306.037809 287.756645 
L 305.261051 287.635228 
L 304.484293 287.513811 
L 303.707536 287.392394 
L 302.930778 287.270977 
L 302.15402 287.149559 
L 301.377263 287.028142 
L 300.600505 286.906725 
L 299.823747 286.785308 
L 299.04699 286.663891 
L 298.270232 286.542474 
L 297.493474 286.421057 
L 296.716717 286.29964 
L 295.939959 286.178223 
L 295.163201 286.056806 
L 294.386444 285.935389 
L 293.609686 285.813972 
L 292.832928 285.692555 
L 292.056171 285.571138 
L 291.279413 285.449721 
L 290.502655 285.328304 
L 289.725898 285.206886 
L 288.94914 285.085469 
L 288.172382 284.964052 
L 287.395625 284.842635 
L 286.618867 284.721218 
L 285.842109 284.599801 
L 285.065352 284.478384 
L 284.288594 284.356967 
L 283.511837 284.23555 
L 282.735079 284.114133 
L 281.958321 283.992716 
L 281.181564 283.871299 
L 280.404806 283.749882 
L 279.628048 283.628465 
L 278.851291 283.507048 
L 278.074533 283.385631 
L 277.297775 283.264213 
L 276.521018 283.142796 
L 275.74426 283.021379 
L 274.967502 282.899962 
L 274.190745 282.778545 
L 273.413987 282.657128 
L 272.637229 282.535711 
L 271.860472 282.414294 
L 271.083714 282.292877 
L 270.306956 282.17146 
L 269.530199 282.050043 
L 268.753441 281.928626 
L 267.976683 281.807209 
L 267.199926 281.685792 
L 266.423168 281.564375 
L 265.64641 281.442957 
L 264.869653 281.32154 
L 264.092895 281.200123 
L 263.316137 281.078706 
L 262.53938 280.957289 
L 261.762622 280.835872 
L 260.985864 280.714455 
L 260.209107 280.593038 
L 259.432349 280.471621 
L 258.655591 280.350204 
L 257.878834 280.228787 
L 257.102076 280.10737 
L 256.325318 279.985953 
L 255.548561 279.864536 
L 254.771803 279.743119 
L 253.995045 279.621702 
L 253.218288 279.500284 
L 252.44153 279.378867 
L 251.664772 279.25745 
L 250.888015 279.136033 
L 250.111257 279.014616 
L 249.334499 278.893199 
L 248.557742 278.771782 
L 247.780984 278.650365 
L 247.004226 278.528948 
L 246.227469 278.407531 
L 245.450711 278.286114 
L 244.673953 278.164697 
L 243.897196 278.04328 
L 243.120438 277.921863 
L 242.34368 277.800446 
L 241.566923 277.679029 
L 240.790165 277.557611 
L 240.013407 277.436194 
L 239.23665 277.314777 
L 238.459892 277.19336 
L 237.683134 277.071943 
L 236.906377 276.950526 
L 236.129619 276.829109 
L 235.352862 276.707692 
L 234.576104 276.586275 
L 233.799346 276.464858 
L 233.022589 276.343441 
L 232.245831 276.222024 
L 231.469073 276.100607 
L 230.692316 275.97919 
L 229.915558 275.857773 
L 229.1388 275.736356 
L 228.362043 275.614938 
L 227.585285 275.493521 
L 226.808527 275.372104 
L 226.03177 275.250687 
L 225.255012 275.12927 
L 224.478254 275.007853 
L 223.701497 274.886436 
L 222.924739 274.765019 
L 222.147981 274.643602 
L 221.371224 274.522185 
L 220.594466 274.400768 
L 219.817708 274.279351 
L 219.040951 274.157934 
L 218.264193 274.036517 
L 217.487435 273.9151 
L 216.710678 273.793682 
L 215.93392 273.672265 
L 215.157162 273.550848 
L 214.380405 273.429431 
L 213.603647 273.308014 
L 212.826889 273.186597 
L 212.050132 273.06518 
L 211.273374 272.943763 
L 210.496616 272.822346 
L 209.719859 272.700929 
L 208.943101 272.579512 
L 208.166343 272.458095 
L 207.389586 272.336678 
L 206.612828 272.215261 
L 205.83607 272.093844 
L 205.059313 271.972427 
L 204.282555 271.851009 
L 203.505797 271.729592 
L 202.72904 271.608175 
L 201.952282 271.486758 
L 201.175524 271.365341 
L 200.398767 271.243924 
L 199.622009 271.122507 
L 198.845251 271.00109 
L 198.068494 270.879673 
L 197.291736 270.758256 
L 196.514978 270.636839 
L 195.738221 270.515422 
L 194.961463 270.394005 
L 194.184705 270.272588 
L 193.407948 270.151171 
L 192.63119 270.029754 
L 191.854432 269.908336 
L 191.077675 269.786919 
L 190.300917 269.665502 
L 189.52416 269.544085 
L 188.747402 269.422668 
L 187.970644 269.301251 
L 187.193887 269.179834 
L 186.417129 269.058417 
L 185.640371 268.937 
L 184.863614 268.815583 
L 184.863614 268.815583 
L 184.474857 268.236836 
L 184.0861 267.65809 
L 183.697344 267.079343 
L 183.308587 266.500596 
L 182.919831 265.92185 
L 182.531074 265.343103 
L 182.142318 264.764357 
L 181.753561 264.18561 
L 181.364805 263.606863 
L 180.976048 263.028117 
L 180.587292 262.44937 
L 180.198535 261.870624 
L 179.809778 261.291877 
L 179.421022 260.71313 
L 179.032265 260.134384 
L 178.643509 259.555637 
L 178.254752 258.97689 
L 177.865996 258.398144 
L 177.477239 257.819397 
L 177.088483 257.240651 
L 176.699726 256.661904 
L 176.31097 256.083157 
L 175.922213 255.504411 
L 175.533457 254.925664 
L 175.1447 254.346918 
L 174.755943 253.768171 
L 174.367187 253.189424 
L 173.97843 252.610678 
L 173.589674 252.031931 
L 173.200917 251.453184 
L 172.812161 250.874438 
L 172.423404 250.295691 
L 172.034648 249.716945 
L 171.645891 249.138198 
L 171.257135 248.559451 
L 170.868378 247.980705 
L 170.479622 247.401958 
L 170.090865 246.823212 
L 169.702108 246.244465 
L 169.313352 245.665718 
L 168.924595 245.086972 
L 168.535839 244.508225 
L 168.147082 243.929479 
L 167.758326 243.350732 
L 167.369569 242.771985 
L 166.980813 242.193239 
L 166.592056 241.614492 
L 166.2033 241.035745 
L 165.814543 240.456999 
L 165.425786 239.878252 
L 165.03703 239.299506 
L 164.648273 238.720759 
L 164.259517 238.142012 
L 163.87076 237.563266 
L 163.482004 236.984519 
L 163.093247 236.405773 
L 162.704491 235.827026 
L 162.315734 235.248279 
L 161.926978 234.669533 
L 161.538221 234.090786 
L 161.149465 233.512039 
L 160.760708 232.933293 
L 160.371951 232.354546 
L 159.983195 231.7758 
L 159.594438 231.197053 
L 159.205682 230.618306 
L 158.816925 230.03956 
L 158.428169 229.460813 
L 158.039412 228.882067 
L 157.650656 228.30332 
L 157.261899 227.724573 
L 156.873143 227.145827 
L 156.484386 226.56708 
L 156.095629 225.988334 
L 155.706873 225.409587 
L 155.318116 224.83084 
L 154.92936 224.252094 
L 154.540603 223.673347 
L 154.151847 223.0946 
L 153.76309 222.515854 
L 153.374334 221.937107 
L 152.985577 221.358361 
L 152.596821 220.779614 
L 152.208064 220.200867 
L 151.819308 219.622121 
L 151.430551 219.043374 
L 151.041794 218.464628 
L 150.653038 217.885881 
L 150.264281 217.307134 
L 149.875525 216.728388 
L 149.486768 216.149641 
L 149.098012 215.570894 
L 148.709255 214.992148 
L 148.320499 214.413401 
L 147.931742 213.834655 
L 147.542986 213.255908 
L 147.154229 212.677161 
L 146.765472 212.098415 
L 146.376716 211.519668 
L 145.987959 210.940922 
L 145.599203 210.362175 
L 145.210446 209.783428 
L 144.82169 209.204682 
L 144.432933 208.625935 
L 144.044177 208.047189 
L 143.65542 207.468442 
L 143.266664 206.889695 
L 142.877907 206.310949 
L 142.489151 205.732202 
L 142.100394 205.153455 
L 141.711637 204.574709 
L 141.322881 203.995962 
L 140.934124 203.417216 
L 140.545368 202.838469 
L 140.156611 202.259722 
L 139.767855 201.680976 
L 139.379098 201.102229 
L 138.990342 200.523483 
L 138.601585 199.944736 
L 138.212829 199.365989 
L 137.824072 198.787243 
L 137.435315 198.208496 
L 137.046559 197.629749 
L 136.657802 197.051003 
L 136.269046 196.472256 
L 135.880289 195.89351 
L 135.491533 195.314763 
L 135.102776 194.736016 
L 134.71402 194.15727 
L 134.325263 193.578523 
L 133.936507 192.999777 
L 133.54775 192.42103 
L 133.158994 191.842283 
L 132.770237 191.263537 
L 132.38148 190.68479 
L 131.992724 190.106043 
L 131.603967 189.527297 
L 131.215211 188.94855 
L 130.826454 188.369804 
L 130.437698 187.791057 
L 130.048941 187.21231 
L 129.660185 186.633564 
L 129.271428 186.054817 
L 128.882672 185.476071 
L 128.493915 184.897324 
L 128.105158 184.318577 
L 127.716402 183.739831 
L 127.327645 183.161084 
L 126.938889 182.582338 
L 126.550132 182.003591 
L 126.161376 181.424844 
L 125.772619 180.846098 
L 125.383863 180.267351 
L 124.995106 179.688604 
L 124.60635 179.109858 
L 124.217593 178.531111 
L 123.828837 177.952365 
L 123.44008 177.373618 
L 123.051323 176.794871 
L 122.662567 176.216125 
L 122.27381 175.637378 
L 121.885054 175.058632 
L 121.496297 174.479885 
L 121.107541 173.901138 
L 120.718784 173.322392 
L 120.330028 172.743645 
L 119.941271 172.164898 
L 119.552515 171.586152 
L 119.163758 171.007405 
L 118.775001 170.428659 
L 118.386245 169.849912 
L 117.997488 169.271165 
L 117.608732 168.692419 
L 117.219975 168.113672 
L 116.831219 167.534926 
L 116.442462 166.956179 
L 116.053706 166.377432 
L 115.664949 165.798686 
L 115.276193 165.219939 
L 114.887436 164.641193 
L 114.49868 164.062446 
L 114.109923 163.483699 
L 113.721166 162.904953 
L 113.33241 162.326206 
L 112.943653 161.747459 
L 112.554897 161.168713 
L 112.16614 160.589966 
L 111.777384 160.01122 
L 111.388627 159.432473 
L 110.999871 158.853726 
L 110.611114 158.27498 
L 110.222358 157.696233 
L 109.833601 157.117487 
L 109.444844 156.53874 
L 109.056088 155.959993 
L 108.667331 155.381247 
L 108.278575 154.8025 
L 107.889818 154.223753 
L 107.501062 153.645007 
L 107.112305 153.06626 
L 106.723549 152.487514 
L 106.334792 151.908767 
L 105.946036 151.33002 
L 105.557279 150.751274 
L 105.168523 150.172527 
L 104.779766 149.593781 
L 104.391009 149.015034 
L 104.002253 148.436287 
L 103.613496 147.857541 
L 103.22474 147.278794 
L 102.835983 146.700048 
L 102.447227 146.121301 
L 102.05847 145.542554 
L 101.669714 144.963808 
L 101.280957 144.385061 
L 100.892201 143.806314 
L 100.503444 143.227568 
L 100.114688 142.648821 
L 99.725931 142.070075 
L 99.337174 141.491328 
L 98.948418 140.912581 
L 98.559661 140.333835 
L 98.170905 139.755088 
L 97.782148 139.176342 
L 97.393392 138.597595 
L 97.004635 138.018848 
L 96.615879 137.440102 
L 96.227122 136.861355 
L 95.838366 136.282608 
L 95.449609 135.703862 
L 95.060852 135.125115 
L 94.672096 134.546369 
L 94.283339 133.967622 
L 93.894583 133.388875 
L 93.505826 132.810129 
L 93.11707 132.231382 
L 92.728313 131.652636 
L 92.339557 131.073889 
L 91.9508 130.495142 
L 91.562044 129.916396 
L 91.173287 129.337649 
L 90.784531 128.758903 
L 90.395774 128.180156 
L 90.007017 127.601409 
L 89.618261 127.022663 
L 89.229504 126.443916 
L 88.840748 125.865169 
L 88.451991 125.286423 
L 88.063235 124.707676 
L 87.674478 124.12893 
L 87.285722 123.550183 
L 86.896965 122.971436 
L 86.508209 122.39269 
L 86.119452 121.813943 
L 85.730695 121.235197 
L 85.341939 120.65645 
L 84.953182 120.077703 
L 84.564426 119.498957 
L 84.175669 118.92021 
L 69.419795 136.312679 
L 69.673835 137.050214 
L 69.927569 137.788109 
L 70.180998 138.526363 
L 70.434121 139.264978 
L 70.686938 140.003954 
L 70.93945 140.74329 
L 71.191655 141.482988 
L 71.443553 142.223046 
L 71.695145 142.963466 
L 71.946429 143.704249 
L 72.197407 144.445393 
L 72.448077 145.186899 
L 72.69844 145.928768 
L 72.948494 146.671 
L 73.198241 147.413595 
L 73.447679 148.156553 
L 73.696809 148.899876 
L 73.94563 149.643561 
L 74.194142 150.387612 
L 74.442345 151.132026 
L 74.690238 151.876806 
L 74.937822 152.62195 
L 75.185096 153.367459 
L 75.43206 154.113334 
L 75.678713 154.859575 
L 75.925056 155.606182 
L 76.171088 156.353155 
L 76.41681 157.100494 
L 76.66222 157.848201 
L 76.907318 158.596275 
L 77.152105 159.344716 
L 77.39658 160.093524 
L 77.640743 160.842701 
L 77.884593 161.592245 
L 78.128131 162.342159 
L 78.371356 163.09244 
L 78.614268 163.843091 
L 78.856866 164.594112 
L 79.099151 165.345501 
L 79.341123 166.097261 
L 79.58278 166.84939 
L 79.824123 167.60189 
L 80.065152 168.354761 
L 80.305866 169.108002 
L 80.546265 169.861615 
L 80.786349 170.615599 
L 81.026118 171.369955 
L 81.265571 172.124683 
L 81.504708 172.879784 
L 81.743529 173.635256 
L 81.982033 174.391102 
L 82.220221 175.147321 
L 82.458093 175.903913 
L 82.695647 176.660879 
L 82.932884 177.418219 
L 83.169803 178.175933 
L 83.406405 178.934022 
L 83.642689 179.692485 
L 83.878654 180.451324 
L 84.114301 181.210538 
L 84.349629 181.970127 
L 84.584639 182.730093 
L 84.819329 183.490434 
L 85.053699 184.251153 
L 85.28775 185.012248 
L 85.521482 185.77372 
L 85.754892 186.535569 
L 85.987983 187.297797 
L 86.220753 188.060402 
L 86.453202 188.823385 
L 86.68533 189.586747 
L 86.917136 190.350488 
L 87.148621 191.114607 
L 87.379784 191.879107 
L 87.610625 192.643985 
L 87.841143 193.409244 
L 88.071339 194.174883 
L 88.301212 194.940903 
L 88.530762 195.707303 
L 88.759989 196.474085 
L 88.988892 197.241248 
L 89.217471 198.008792 
L 89.445726 198.776719 
L 89.673657 199.545028 
L 89.901263 200.313719 
L 90.128544 201.082794 
L 90.3555 201.852252 
L 90.582131 202.622093 
L 90.808437 203.392318 
L 91.034416 204.162926 
L 91.260069 204.93392 
L 91.485396 205.705298 
L 91.710396 206.477061 
L 91.93507 207.249209 
L 92.159416 208.021743 
L 92.383435 208.794663 
L 92.607126 209.567968 
L 92.83049 210.341661 
L 93.053525 211.11574 
L 93.276232 211.890206 
L 93.49861 212.665059 
L 93.72066 213.440301 
L 93.94238 214.21593 
L 94.163771 214.991947 
L 94.384832 215.768353 
L 94.605563 216.545148 
L 94.825964 217.322333 
L 95.046034 218.099906 
L 95.265774 218.87787 
L 95.485183 219.656223 
L 95.70426 220.434967 
L 95.923006 221.214102 
L 96.141421 221.993628 
L 96.359503 222.773545 
L 96.577253 223.553854 
L 96.79467 224.334555 
L 97.011755 225.115648 
L 97.228506 225.897134 
L 97.444924 226.679012 
L 97.661009 227.461284 
L 97.87676 228.243949 
L 98.092176 229.027009 
L 98.307258 229.810462 
L 98.522006 230.59431 
L 98.736418 231.378553 
L 98.950495 232.16319 
L 99.164237 232.948224 
L 99.377643 233.733652 
L 99.590713 234.519477 
L 99.803447 235.305699 
L 100.015844 236.092317 
L 100.227904 236.879332 
L 100.439628 237.666744 
L 100.651013 238.454554 
L 100.862062 239.242763 
L 101.072772 240.031369 
L 101.283144 240.820374 
L 101.493178 241.609778 
L 101.702873 242.399581 
L 101.912228 243.189784 
L 102.121245 243.980386 
L 102.329922 244.771389 
L 102.538259 245.562793 
L 102.746256 246.354597 
L 102.953913 247.146803 
L 103.161229 247.93941 
L 103.368204 248.732419 
L 103.574838 249.52583 
L 103.78113 250.319644 
L 103.987081 251.11386 
L 104.192689 251.90848 
L 104.397955 252.703503 
L 104.602879 253.49893 
L 104.80746 254.294762 
L 105.011697 255.090997 
L 105.215591 255.887638 
L 105.419141 256.684684 
L 105.622347 257.482135 
L 105.825209 258.279992 
L 106.027727 259.078255 
L 106.229899 259.876925 
L 106.431726 260.676002 
L 106.633208 261.475486 
L 106.834344 262.275377 
L 107.035134 263.075676 
L 107.235578 263.876384 
L 107.435675 264.6775 
L 107.635425 265.479024 
L 107.834828 266.280959 
L 108.033883 267.083302 
L 108.232591 267.886056 
L 108.430951 268.689219 
L 108.628962 269.492794 
L 108.826625 270.296779 
L 109.023939 271.101175 
L 109.220904 271.905983 
L 109.417519 272.711203 
L 109.613784 273.516836 
L 109.809699 274.322881 
L 110.005264 275.129339 
L 110.200478 275.93621 
L 110.395342 276.743495 
L 110.589853 277.551194 
L 110.784014 278.359308 
L 110.977822 279.167836 
L 111.171279 279.976779 
L 111.364382 280.786138 
L 111.557134 281.595912 
L 111.749532 282.406103 
L 111.941576 283.21671 
L 112.133267 284.027734 
L 112.324604 284.839175 
L 112.515587 285.651034 
L 112.706216 286.46331 
L 112.896489 287.276005 
L 113.086407 288.089119 
L 113.27597 288.902651 
L 113.465177 289.716603 
L 113.654028 290.530975 
L 113.842523 291.345766 
L 114.030661 292.160978 
L 114.218441 292.976611 
L 114.405865 293.792665 
L 114.592931 294.60914 
L 114.779639 295.426038 
L 114.965989 296.243357 
L 115.15198 297.061099 
L 115.337613 297.879264 
L 115.522886 298.697853 
L 115.7078 299.516865 
L 115.892354 300.336301 
L 116.076549 301.156161 
L 116.260382 301.976446 
L 116.443855 302.797157 
L 116.626967 303.618293 
L 116.809718 304.439855 
L 116.992107 305.261843 
L 117.174134 306.084257 
L 117.355799 306.907099 
L 117.537101 307.730368 
L 117.718041 308.554065 
L 117.898617 309.37819 
L 118.078829 310.202743 
L 118.258678 311.027725 
L 118.438163 311.853137 
L 118.617283 312.678978 
L 118.796038 313.505249 
L 118.974428 314.33195 
L 119.152453 315.159083 
L 119.330112 315.986646 
L 119.507405 316.814641 
L 119.684331 317.643067 
L 119.860891 318.471926 
L 120.037084 319.301218 
L 120.212909 320.130943 
L 120.388367 320.961101 
L 120.563456 321.791693 
L 120.738177 322.622719 
L 120.91253 323.454179 
L 121.086513 324.286075 
L 121.260127 325.118406 
L 121.433372 325.951172 
L 121.606246 326.784375 
L 121.77875 327.618014 
L 121.950884 328.45209 
L 122.122646 329.286604 
L 122.294038 330.121555 
L 122.465057 330.956944 
L 122.635705 331.792771 
L 122.80598 332.629038 
L 122.975883 333.465743 
L 123.145412 334.302888 
L 123.314569 335.140474 
L 123.483351 335.978499 
L 123.65176 336.816966 
L 123.819794 337.655873 
L 123.987454 338.495223 
L 124.154739 339.335014 
z
" clip-path="url(#p4efebac2c9)" style="fill: #ffffff; stroke: #000000; stroke-width: 1.5; stroke-linejoin: miter"/>
   </g>
   <g id="line2d_1">
    <path d="M 69.171766 136.163679 
L 83.92764 118.359568 
" clip-path="url(#p4efebac2c9)" style="fill: none; stroke: #000000; stroke-width: 1.5; stroke-linecap: round"/>
   </g>
   <g id="line2d_2">
    <path d="M 69.171766 177.327967 
L 69.171766 94.999391 
" clip-path="url(#p4efebac2c9)" style="fill: none; stroke: #000000; stroke-width: 1.5; stroke-linecap: round"/>
   </g>
   <g id="line2d_3">
    <path d="M 83.92764 159.523855 
L 83.92764 77.19528 
" clip-path="url(#p4efebac2c9)" style="fill: none; stroke: #000000; stroke-width: 1.5; stroke-linecap: round"/>
   </g>
   <g id="line2d_4">
    <path d="M 83.92764 77.19528 
L 84.665434 76.325656 
" clip-path="url(#p4efebac2c9)" style="fill: none; stroke: #000000; stroke-width: 1.5; stroke-linecap: round"/>
   </g>
   <g id="line2d_5">
    <path d="M 83.92764 159.523855 
L 84.665434 158.654232 
" clip-path="url(#p4efebac2c9)" style="fill: none; stroke: #000000; stroke-width: 1.5; stroke-linecap: round"/>
   </g>
   <g id="line2d_6">
    <path d="M 371.536003 317.804071 
L 386.291877 299.999959 
" clip-path="url(#p4efebac2c9)" style="fill: none; stroke: #000000; stroke-width: 1.5; stroke-linecap: round"/>
   </g>
   <g id="line2d_7">
    <path d="M 371.536003 358.968359 
L 371.536003 276.639783 
" clip-path="url(#p4efebac2c9)" style="fill: none; stroke: #000000; stroke-width: 1.5; stroke-linecap: round"/>
   </g>
   <g id="line2d_8">
    <path d="M 386.291877 341.164247 
L 386.291877 258.835671 
" clip-path="url(#p4efebac2c9)" style="fill: none; stroke: #000000; stroke-width: 1.5; stroke-linecap: round"/>
   </g>
   <g id="line2d_9">
    <path d="M 386.291877 258.835671 
L 387.029671 257.966048 
" clip-path="url(#p4efebac2c9)" style="fill: none; stroke: #000000; stroke-width: 1.5; stroke-linecap: round"/>
   </g>
   <g id="line2d_10">
    <path d="M 386.291877 341.164247 
L 387.029671 340.294624 
" clip-path="url(#p4efebac2c9)" style="fill: none; stroke: #000000; stroke-width: 1.5; stroke-linecap: round"/>
   </g>
   <g id="line2d_11">
    <path d="M 184.863614 267.126651 
L 235.847552 207.032851 
" clip-path="url(#p4efebac2c9)" style="fill: none; stroke: #000000; stroke-width: 1.5; stroke-linecap: round"/>
   </g>
   <g id="patch_11">
    <path d="M 176.777407 371.68719 
L 176.662719 369.316798 
L 176.319157 366.818978 
L 175.748223 364.204651 
L 174.952414 361.48525 
L 173.935209 358.672666 
L 172.701057 355.779197 
L 171.255354 352.817496 
L 169.604422 349.800514 
L 167.755479 346.741443 
L 165.716612 343.653659 
L 163.496735 340.550666 
L 161.105555 337.44603 
L 158.553529 334.353329 
L 155.851816 331.286086 
L 153.012229 328.257713 
L 150.047185 325.281452 
L 146.96965 322.370318 
L 143.793081 319.53704 
L 140.531369 316.794008 
L 137.198775 314.153216 
L 133.809874 311.626212 
L 130.379482 309.224045 
L 126.922601 306.95722 
L 123.454347 304.83565 
L 119.989886 302.86861 
L 116.544366 301.064703 
L 113.132854 299.431816 
L 109.770268 297.97709 
L 106.471311 296.706886 
L 103.25041 295.626757 
L 100.121647 294.741428 
L 97.098705 294.05477 
L 94.194802 293.569784 
L 91.422636 293.288593 
L 88.794329 293.212425 
L 86.321374 293.341613 
L 84.014585 293.675593 
L 81.884048 294.212904 
L 79.93908 294.951197 
L 78.188185 295.887243 
L 76.639021 297.016949 
L 75.29836 298.335375 
L 74.172066 299.836757 
L 73.265063 301.514528 
L 72.581318 303.361353 
L 72.12382 305.369156 
L 71.894569 307.529157 
L 71.894569 309.831911 
L 72.12382 312.267349 
L 72.581318 314.82482 
L 73.265063 317.493143 
L 74.172066 320.260649 
L 75.29836 323.115236 
L 76.639021 326.044423 
L 78.188185 329.0354 
L 79.93908 332.075088 
L 81.884048 335.150197 
L 84.014585 338.247279 
L 86.321374 341.352791 
L 88.794329 344.453154 
L 91.422636 347.534811 
L 94.194802 350.584287 
L 97.098705 353.588247 
L 100.121647 356.533554 
L 103.25041 359.407332 
L 106.471311 362.197012 
L 109.770268 364.890396 
L 113.132854 367.475708 
L 116.544366 369.941641 
L 119.989886 372.277414 
L 123.454347 374.472812 
L 126.922601 376.518236 
L 130.379482 378.40474 
L 133.809874 380.124078 
L 137.198775 381.668729 
L 140.531369 383.031939 
L 143.793081 384.207748 
L 146.96965 385.191014 
L 150.047185 385.977438 
L 153.012229 386.563581 
L 155.851816 386.946879 
L 158.553529 387.125656 
L 161.105555 387.099132 
L 163.496735 386.867421 
L 165.716612 386.431537 
L 167.755479 385.793386 
L 169.604422 384.955759 
L 171.255354 383.922318 
L 172.701057 382.697582 
L 173.935209 381.286907 
L 174.952414 379.696461 
L 175.748223 377.933198 
L 176.319157 376.00483 
L 176.662719 373.919788 
L 176.777407 371.68719 
L 176.777407 371.68719 
z
" clip-path="url(#p4efebac2c9)" style="fill: none; stroke: #000000; stroke-width: 1.1; stroke-linejoin: miter"/>
   </g>
   <g id="patch_12">
    <path d="M 180.52227 367.27319 
L 180.407583 364.902799 
L 180.064021 362.404978 
L 179.493087 359.790651 
L 178.697277 357.07125 
L 177.680073 354.258666 
L 176.445921 351.365197 
L 175.000218 348.403496 
L 173.349285 345.386514 
L 171.500343 342.327443 
L 169.461476 339.239659 
L 167.241599 336.136666 
L 164.850419 333.03203 
L 162.298393 329.939329 
L 159.596679 326.872086 
L 156.757092 323.843713 
L 153.792049 320.867452 
L 150.714514 317.956318 
L 147.537945 315.12304 
L 144.276233 312.380008 
L 140.943639 309.739216 
L 137.554737 307.212212 
L 134.124346 304.810045 
L 130.667465 302.543221 
L 127.199211 300.42165 
L 123.73475 298.45461 
L 120.28923 296.650703 
L 116.877718 295.017816 
L 113.515132 293.56309 
L 110.216175 292.292886 
L 106.995274 291.212757 
L 103.866511 290.327428 
L 100.843569 289.64077 
L 97.939666 289.155784 
L 95.1675 288.874593 
L 92.539193 288.798425 
L 90.066238 288.927613 
L 87.759449 289.261593 
L 85.628912 289.798904 
L 83.683944 290.537197 
L 81.933049 291.473243 
L 80.383885 292.602949 
L 79.043224 293.921375 
L 77.91693 295.422757 
L 77.009927 297.100528 
L 76.326181 298.947353 
L 75.868683 300.955156 
L 75.639433 303.115157 
L 75.639433 305.417911 
L 75.868683 307.853349 
L 76.326181 310.41082 
L 77.009927 313.079143 
L 77.91693 315.846649 
L 79.043224 318.701236 
L 80.383885 321.630423 
L 81.933049 324.6214 
L 83.683944 327.661088 
L 85.628912 330.736197 
L 87.759449 333.833279 
L 90.066238 336.938791 
L 92.539193 340.039155 
L 95.1675 343.120812 
L 97.939666 346.170287 
L 100.843569 349.174247 
L 103.866511 352.119554 
L 106.995274 354.993332 
L 110.216175 357.783012 
L 113.515132 360.476396 
L 116.877718 363.061708 
L 120.28923 365.527641 
L 123.73475 367.863414 
L 127.199211 370.058812 
L 130.667465 372.104236 
L 134.124346 373.990741 
L 137.554737 375.710078 
L 140.943639 377.254729 
L 144.276233 378.617939 
L 147.537945 379.793748 
L 150.714514 380.777015 
L 153.792049 381.563438 
L 156.757092 382.149581 
L 159.596679 382.532879 
L 162.298393 382.711656 
L 164.850419 382.685132 
L 167.241599 382.453421 
L 169.461476 382.017537 
L 171.500343 381.379386 
L 173.349285 380.541759 
L 175.000218 379.508318 
L 176.445921 378.283582 
L 177.680073 376.872907 
L 178.697277 375.282461 
L 179.493087 373.519199 
L 180.064021 371.59083 
L 180.407583 369.505789 
L 180.52227 367.27319 
L 180.52227 367.27319 
z
" clip-path="url(#p4efebac2c9)" style="fill: none; stroke: #000000; stroke-width: 1.1; stroke-linejoin: miter"/>
   </g>
   <g id="patch_13">
    <path d="M 77.914392 100.251382 
L 77.895277 99.856316 
L 77.838017 99.440013 
L 77.742861 99.004292 
L 77.610227 98.551058 
L 77.440692 98.082294 
L 77.235 97.600049 
L 76.99405 97.106433 
L 76.718895 96.603602 
L 76.410737 96.093757 
L 76.070926 95.579126 
L 75.700947 95.061961 
L 75.302417 94.544522 
L 74.877079 94.029071 
L 74.426794 93.517864 
L 73.953529 93.013135 
L 73.459355 92.517092 
L 72.946433 92.031903 
L 72.417004 91.55969 
L 71.873386 91.102518 
L 71.317954 90.662386 
L 70.753137 90.241219 
L 70.181405 89.840857 
L 69.605258 89.463053 
L 69.027215 89.109458 
L 68.449805 88.781618 
L 67.875552 88.480967 
L 67.306967 88.208819 
L 66.746536 87.966365 
L 66.196709 87.754664 
L 65.659893 87.574643 
L 65.138432 87.427088 
L 64.634608 87.312645 
L 64.150625 87.231814 
L 63.688597 87.184949 
L 63.250546 87.172254 
L 62.838387 87.193785 
L 62.453922 87.249449 
L 62.098832 87.339001 
L 61.774671 87.462049 
L 61.482855 87.618057 
L 61.224661 87.806341 
L 61.001218 88.026079 
L 60.813502 88.276309 
L 60.662335 88.555938 
L 60.548377 88.863742 
L 60.472128 89.198376 
L 60.433919 89.558376 
L 60.433919 89.942168 
L 60.472128 90.348075 
L 60.548377 90.77432 
L 60.662335 91.21904 
L 60.813502 91.680291 
L 61.001218 92.156056 
L 61.224661 92.644254 
L 61.482855 93.14275 
L 61.774671 93.649365 
L 62.098832 94.161883 
L 62.453922 94.678063 
L 62.838387 95.195648 
L 63.250546 95.712376 
L 63.688597 96.225985 
L 64.150625 96.734231 
L 64.634608 97.234891 
L 65.138432 97.725776 
L 65.659893 98.204739 
L 66.196709 98.669685 
L 66.746536 99.118583 
L 67.306967 99.549468 
L 67.875552 99.960457 
L 68.449805 100.349752 
L 69.027215 100.715652 
L 69.605258 101.056556 
L 70.181405 101.370973 
L 70.753137 101.65753 
L 71.317954 101.914971 
L 71.873386 102.142173 
L 72.417004 102.338141 
L 72.946433 102.502019 
L 73.459355 102.63309 
L 73.953529 102.73078 
L 74.426794 102.794663 
L 74.877079 102.824459 
L 75.302417 102.820039 
L 75.700947 102.78142 
L 76.070926 102.708773 
L 76.410737 102.602414 
L 76.718895 102.46281 
L 76.99405 102.29057 
L 77.235 102.086447 
L 77.440692 101.851334 
L 77.610227 101.58626 
L 77.742861 101.292383 
L 77.838017 100.970988 
L 77.895277 100.623481 
z
" clip-path="url(#p4efebac2c9)" style="fill: #ffffff; stroke: #000000; stroke-width: 1.1; stroke-linejoin: miter"/>
   </g>
   <g id="patch_14">
    <path d="M 77.914392 182.579957 
L 77.895277 182.184892 
L 77.838017 181.768589 
L 77.742861 181.332868 
L 77.610227 180.879634 
L 77.440692 180.41087 
L 77.235 179.928625 
L 76.99405 179.435008 
L 76.718895 178.932178 
L 76.410737 178.422333 
L 76.070926 177.907702 
L 75.700947 177.390537 
L 75.302417 176.873097 
L 74.877079 176.357647 
L 74.426794 175.84644 
L 73.953529 175.341711 
L 73.459355 174.845668 
L 72.946433 174.360479 
L 72.417004 173.888266 
L 71.873386 173.431094 
L 71.317954 172.990962 
L 70.753137 172.569794 
L 70.181405 172.169433 
L 69.605258 171.791629 
L 69.027215 171.438034 
L 68.449805 171.110194 
L 67.875552 170.809543 
L 67.306967 170.537395 
L 66.746536 170.294941 
L 66.196709 170.08324 
L 65.659893 169.903218 
L 65.138432 169.755664 
L 64.634608 169.641221 
L 64.150625 169.56039 
L 63.688597 169.513524 
L 63.250546 169.50083 
L 62.838387 169.522361 
L 62.453922 169.578024 
L 62.098832 169.667576 
L 61.774671 169.790625 
L 61.482855 169.946633 
L 61.224661 170.134917 
L 61.001218 170.354655 
L 60.813502 170.604885 
L 60.662335 170.884514 
L 60.548377 171.192318 
L 60.472128 171.526952 
L 60.433919 171.886952 
L 60.433919 172.270744 
L 60.472128 172.67665 
L 60.548377 173.102896 
L 60.662335 173.547616 
L 60.813502 174.008867 
L 61.001218 174.484632 
L 61.224661 174.972829 
L 61.482855 175.471326 
L 61.774671 175.97794 
L 62.098832 176.490458 
L 62.453922 177.006639 
L 62.838387 177.524224 
L 63.250546 178.040951 
L 63.688597 178.554561 
L 64.150625 179.062807 
L 64.634608 179.563467 
L 65.138432 180.054351 
L 65.659893 180.533314 
L 66.196709 180.998261 
L 66.746536 181.447158 
L 67.306967 181.878044 
L 67.875552 182.289032 
L 68.449805 182.678328 
L 69.027215 183.044228 
L 69.605258 183.385132 
L 70.181405 183.699549 
L 70.753137 183.986105 
L 71.317954 184.243547 
L 71.873386 184.470749 
L 72.417004 184.666717 
L 72.946433 184.830595 
L 73.459355 184.961665 
L 73.953529 185.059356 
L 74.426794 185.123239 
L 74.877079 185.153035 
L 75.302417 185.148614 
L 75.700947 185.109996 
L 76.070926 185.037348 
L 76.410737 184.93099 
L 76.718895 184.791385 
L 76.99405 184.619145 
L 77.235 184.415023 
L 77.440692 184.17991 
L 77.610227 183.914836 
L 77.742861 183.620959 
L 77.838017 183.299564 
L 77.895277 182.952057 
z
" clip-path="url(#p4efebac2c9)" style="fill: #ffffff; stroke: #000000; stroke-width: 1.1; stroke-linejoin: miter"/>
   </g>
   <g id="patch_15">
    <path d="M 380.27863 281.891773 
L 380.259515 281.496708 
L 380.202255 281.080405 
L 380.107099 280.644683 
L 379.974464 280.19145 
L 379.80493 279.722686 
L 379.599238 279.240441 
L 379.358287 278.746824 
L 379.083132 278.243994 
L 378.774975 277.734149 
L 378.435164 277.219518 
L 378.065184 276.702352 
L 377.666654 276.184913 
L 377.241317 275.669463 
L 376.791031 275.158256 
L 376.317766 274.653527 
L 375.823593 274.157484 
L 375.31067 273.672294 
L 374.781242 273.200082 
L 374.237623 272.74291 
L 373.682191 272.302778 
L 373.117374 271.88161 
L 372.545642 271.481249 
L 371.969495 271.103445 
L 371.391453 270.74985 
L 370.814043 270.42201 
L 370.239789 270.121359 
L 369.671204 269.849211 
L 369.110773 269.606757 
L 368.560947 269.395056 
L 368.02413 269.215034 
L 367.50267 269.06748 
L 366.998846 268.953037 
L 366.514862 268.872206 
L 366.052834 268.82534 
L 365.614783 268.812646 
L 365.202624 268.834177 
L 364.818159 268.88984 
L 364.46307 268.979392 
L 364.138908 269.102441 
L 363.847093 269.258449 
L 363.588899 269.446733 
L 363.365455 269.666471 
L 363.177739 269.916701 
L 363.026572 270.19633 
L 362.912615 270.504134 
L 362.836365 270.838768 
L 362.798157 271.198768 
L 362.798157 271.58256 
L 362.836365 271.988466 
L 362.912615 272.414712 
L 363.026572 272.859432 
L 363.177739 273.320683 
L 363.365455 273.796448 
L 363.588899 274.284645 
L 363.847093 274.783142 
L 364.138908 275.289756 
L 364.46307 275.802274 
L 364.818159 276.318455 
L 365.202624 276.83604 
L 365.614783 277.352767 
L 366.052834 277.866377 
L 366.514862 278.374623 
L 366.998846 278.875283 
L 367.50267 279.366167 
L 368.02413 279.84513 
L 368.560947 280.310077 
L 369.110773 280.758974 
L 369.671204 281.18986 
L 370.239789 281.600848 
L 370.814043 281.990144 
L 371.391453 282.356044 
L 371.969495 282.696947 
L 372.545642 283.011365 
L 373.117374 283.297921 
L 373.682191 283.555363 
L 374.237623 283.782565 
L 374.781242 283.978533 
L 375.31067 284.142411 
L 375.823593 284.273481 
L 376.317766 284.371172 
L 376.791031 284.435055 
L 377.241317 284.464851 
L 377.666654 284.46043 
L 378.065184 284.421812 
L 378.435164 284.349164 
L 378.774975 284.242806 
L 379.083132 284.103201 
L 379.358287 283.930961 
L 379.599238 283.726839 
L 379.80493 283.491726 
L 379.974464 283.226652 
L 380.107099 282.932775 
L 380.202255 282.61138 
L 380.259515 282.263873 
z
" clip-path="url(#p4efebac2c9)" style="fill: #ffffff; stroke: #000000; stroke-width: 1.1; stroke-linejoin: miter"/>
   </g>
   <g id="patch_16">
    <path d="M 380.27863 364.220349 
L 380.259515 363.825284 
L 380.202255 363.40898 
L 380.107099 362.973259 
L 379.974464 362.520026 
L 379.80493 362.051262 
L 379.599238 361.569017 
L 379.358287 361.0754 
L 379.083132 360.57257 
L 378.774975 360.062724 
L 378.435164 359.548094 
L 378.065184 359.030928 
L 377.666654 358.513489 
L 377.241317 357.998039 
L 376.791031 357.486832 
L 376.317766 356.982103 
L 375.823593 356.486059 
L 375.31067 356.00087 
L 374.781242 355.528657 
L 374.237623 355.071485 
L 373.682191 354.631353 
L 373.117374 354.210186 
L 372.545642 353.809825 
L 371.969495 353.432021 
L 371.391453 353.078426 
L 370.814043 352.750586 
L 370.239789 352.449934 
L 369.671204 352.177787 
L 369.110773 351.935332 
L 368.560947 351.723631 
L 368.02413 351.54361 
L 367.50267 351.396055 
L 366.998846 351.281612 
L 366.514862 351.200781 
L 366.052834 351.153916 
L 365.614783 351.141221 
L 365.202624 351.162753 
L 364.818159 351.218416 
L 364.46307 351.307968 
L 364.138908 351.431017 
L 363.847093 351.587024 
L 363.588899 351.775309 
L 363.365455 351.995046 
L 363.177739 352.245277 
L 363.026572 352.524905 
L 362.912615 352.832709 
L 362.836365 353.167343 
L 362.798157 353.527343 
L 362.798157 353.911136 
L 362.836365 354.317042 
L 362.912615 354.743287 
L 363.026572 355.188008 
L 363.177739 355.649259 
L 363.365455 356.125023 
L 363.588899 356.613221 
L 363.847093 357.111717 
L 364.138908 357.618332 
L 364.46307 358.13085 
L 364.818159 358.64703 
L 365.202624 359.164616 
L 365.614783 359.681343 
L 366.052834 360.194952 
L 366.514862 360.703198 
L 366.998846 361.203858 
L 367.50267 361.694743 
L 368.02413 362.173706 
L 368.560947 362.638653 
L 369.110773 363.08755 
L 369.671204 363.518435 
L 370.239789 363.929424 
L 370.814043 364.31872 
L 371.391453 364.684619 
L 371.969495 365.025523 
L 372.545642 365.339941 
L 373.117374 365.626497 
L 373.682191 365.883939 
L 374.237623 366.11114 
L 374.781242 366.307109 
L 375.31067 366.470986 
L 375.823593 366.602057 
L 376.317766 366.699747 
L 376.791031 366.76363 
L 377.241317 366.793427 
L 377.666654 366.789006 
L 378.065184 366.750387 
L 378.435164 366.67774 
L 378.774975 366.571382 
L 379.083132 366.431777 
L 379.358287 366.259537 
L 379.599238 366.055414 
L 379.80493 365.820302 
L 379.974464 365.555227 
L 380.107099 365.26135 
L 380.202255 364.939956 
L 380.259515 364.592449 
z
" clip-path="url(#p4efebac2c9)" style="fill: #ffffff; stroke: #000000; stroke-width: 1.1; stroke-linejoin: miter"/>
   </g>
   <g id="line2d_12">
    <path d="M 133.402943 330.632076 
L 134.868611 330.426207 
L 136.334279 330.220338 
L 137.799948 330.014468 
L 139.265616 329.808599 
L 140.731284 329.60273 
L 142.196953 329.396861 
L 143.662621 329.190992 
L 145.128289 328.985123 
L 146.593958 328.779254 
L 148.059626 328.573384 
L 149.525294 328.367515 
L 150.990963 328.161646 
L 152.456631 327.955777 
L 153.922299 327.749908 
L 155.387968 327.544039 
L 156.853636 327.33817 
L 158.319304 327.1323 
L 159.784973 326.926431 
L 161.250641 326.720562 
L 162.716309 326.514693 
L 164.181978 326.308824 
L 165.647646 326.102955 
L 167.113314 325.897085 
L 168.578983 325.691216 
L 170.044651 325.485347 
L 171.510319 325.279478 
L 172.975988 325.073609 
L 174.441656 324.86774 
L 175.907324 324.661871 
L 177.372992 324.456001 
L 178.838661 324.250132 
L 180.304329 324.044263 
L 181.769997 323.838394 
L 183.235666 323.632525 
L 184.701334 323.426656 
L 186.167002 323.220787 
L 187.632671 323.014917 
L 189.098339 322.809048 
L 190.564007 322.603179 
L 192.029676 322.39731 
L 193.495344 322.191441 
L 194.961012 321.985572 
L 196.426681 321.779702 
L 197.892349 321.573833 
L 199.358017 321.367964 
L 200.823686 321.162095 
L 202.289354 320.956226 
L 203.755022 320.750357 
L 205.220691 320.544488 
L 206.686359 320.338618 
L 208.152027 320.132749 
L 209.617696 319.92688 
L 211.083364 319.721011 
L 212.549032 319.515142 
L 214.0147 319.309273 
L 215.480369 319.103404 
L 216.946037 318.897534 
L 218.411705 318.691665 
L 219.877374 318.485796 
L 221.343042 318.279927 
L 222.80871 318.074058 
L 224.274379 317.868189 
L 225.740047 317.662319 
L 227.205715 317.45645 
L 228.671384 317.250581 
L 230.137052 317.044712 
L 231.60272 316.838843 
L 233.068389 316.632974 
L 234.534057 316.427105 
L 235.999725 316.221235 
L 237.465394 316.015366 
L 238.931062 315.809497 
L 240.39673 315.603628 
L 241.862399 315.397759 
L 243.328067 315.19189 
L 244.793735 314.986021 
L 246.259404 314.780151 
L 247.725072 314.574282 
L 249.19074 314.368413 
L 250.656409 314.162544 
L 252.122077 313.956675 
L 253.587745 313.750806 
L 255.053413 313.544936 
L 256.519082 313.339067 
L 257.98475 313.133198 
L 259.450418 312.927329 
L 260.916087 312.72146 
L 262.381755 312.515591 
L 263.847423 312.309722 
L 265.313092 312.103852 
L 266.77876 311.897983 
L 268.244428 311.692114 
L 269.710097 311.486245 
L 271.175765 311.280376 
L 272.641433 311.074507 
L 274.107102 310.868638 
L 275.57277 310.662768 
L 277.038438 310.456899 
L 278.504107 310.25103 
L 279.969775 310.045161 
L 281.435443 309.839292 
L 282.901112 309.633423 
L 284.36678 309.427553 
L 285.832448 309.221684 
L 287.298117 309.015815 
L 288.763785 308.809946 
L 290.229453 308.604077 
L 291.695121 308.398208 
L 293.16079 308.192339 
L 294.626458 307.986469 
L 296.092126 307.7806 
L 297.557795 307.574731 
L 299.023463 307.368862 
L 300.489131 307.162993 
L 301.9548 306.957124 
L 303.420468 306.751255 
L 304.886136 306.545385 
L 306.351805 306.339516 
L 307.817473 306.133647 
" clip-path="url(#p4efebac2c9)" style="fill: none; stroke: #000000; stroke-width: 2.6; stroke-linecap: round"/>
   </g>
   <g id="line2d_13">
    <path d="M 133.402943 330.632076 
L 133.158289 329.398759 
L 132.913635 328.165441 
L 132.668981 326.932124 
L 132.424327 325.698806 
L 132.179673 324.465489 
L 131.935019 323.232172 
L 131.690366 321.998854 
L 131.445712 320.765537 
L 131.201058 319.53222 
L 130.956404 318.298902 
L 130.71175 317.065585 
L 130.467096 315.832268 
L 130.222442 314.59895 
L 129.977788 313.365633 
L 129.733134 312.132315 
L 129.488481 310.898998 
L 129.243827 309.665681 
L 128.999173 308.432363 
L 128.754519 307.199046 
L 128.509865 305.965729 
L 128.265211 304.732411 
L 128.020557 303.499094 
L 127.775903 302.265777 
L 127.531249 301.032459 
L 127.286596 299.799142 
L 127.041942 298.565824 
L 126.797288 297.332507 
L 126.552634 296.09919 
L 126.30798 294.865872 
L 126.063326 293.632555 
L 125.818672 292.399238 
L 125.574018 291.16592 
L 125.329364 289.932603 
L 125.084711 288.699286 
L 124.840057 287.465968 
L 124.595403 286.232651 
L 124.350749 284.999333 
L 124.106095 283.766016 
L 123.861441 282.532699 
L 123.616787 281.299381 
L 123.372133 280.066064 
L 123.127479 278.832747 
L 122.882826 277.599429 
L 122.638172 276.366112 
L 122.393518 275.132794 
L 122.148864 273.899477 
L 121.90421 272.66616 
L 121.659556 271.432842 
L 121.414902 270.199525 
L 121.170248 268.966208 
L 120.925594 267.73289 
L 120.680941 266.499573 
L 120.436287 265.266256 
L 120.191633 264.032938 
L 119.946979 262.799621 
L 119.702325 261.566303 
L 119.457671 260.332986 
L 119.213017 259.099669 
L 118.968363 257.866351 
L 118.723709 256.633034 
L 118.479056 255.399717 
L 118.234402 254.166399 
L 117.989748 252.933082 
L 117.745094 251.699765 
L 117.50044 250.466447 
L 117.255786 249.23313 
L 117.011132 247.999812 
L 116.766478 246.766495 
L 116.521824 245.533178 
L 116.277171 244.29986 
L 116.032517 243.066543 
L 115.787863 241.833226 
L 115.543209 240.599908 
L 115.298555 239.366591 
L 115.053901 238.133274 
L 114.809247 236.899956 
L 114.564593 235.666639 
L 114.319939 234.433321 
L 114.075286 233.200004 
L 113.830632 231.966687 
L 113.585978 230.733369 
L 113.341324 229.500052 
L 113.09667 228.266735 
L 112.852016 227.033417 
L 112.607362 225.8001 
L 112.362708 224.566783 
L 112.118054 223.333465 
L 111.873401 222.100148 
L 111.628747 220.86683 
L 111.384093 219.633513 
L 111.139439 218.400196 
L 110.894785 217.166878 
L 110.650131 215.933561 
L 110.405477 214.700244 
L 110.160823 213.466926 
L 109.916169 212.233609 
L 109.671515 211.000291 
L 109.426862 209.766974 
L 109.182208 208.533657 
L 108.937554 207.300339 
L 108.6929 206.067022 
L 108.448246 204.833705 
L 108.203592 203.600387 
L 107.958938 202.36707 
L 107.714284 201.133753 
L 107.46963 199.900435 
L 107.224977 198.667118 
L 106.980323 197.4338 
L 106.735669 196.200483 
L 106.491015 194.967166 
L 106.246361 193.733848 
L 106.001707 192.500531 
L 105.757053 191.267214 
L 105.512399 190.033896 
L 105.267745 188.800579 
L 105.023092 187.567262 
L 104.778438 186.333944 
L 104.533784 185.100627 
L 104.28913 183.867309 
" clip-path="url(#p4efebac2c9)" style="fill: none; stroke: #000000; stroke-width: 2.6; stroke-linecap: round"/>
   </g>
  </g>
 </g>
 <defs>
  <clipPath id="p4efebac2c9">
   <rect x="8.178599" y="26.597656" width="431.106392" height="410.256"/>
  </clipPath>
 </defs>
</svg>
